G04*
G04 #@! TF.GenerationSoftware,Altium Limited,Altium Designer,23.0.1 (38)*
G04*
G04 Layer_Physical_Order=4*
G04 Layer_Color=16711680*
%FSLAX44Y44*%
%MOMM*%
G71*
G04*
G04 #@! TF.SameCoordinates,61B169D7-A8E7-49CF-968D-BC901533A6F8*
G04*
G04*
G04 #@! TF.FilePolarity,Positive*
G04*
G01*
G75*
%ADD11C,0.3810*%
%ADD17C,0.2540*%
%ADD46C,3.8100*%
%ADD47C,2.0320*%
%ADD48C,0.6350*%
%ADD49C,0.5080*%
%ADD50C,1.2700*%
%ADD51C,0.3810*%
G36*
X662752Y1443D02*
X661741Y432D01*
X3626D01*
Y254254D01*
X3578Y254495D01*
X4620Y255765D01*
X662752D01*
Y1443D01*
D02*
G37*
%LPC*%
G36*
X350180Y238440D02*
X346903D01*
X343737Y237592D01*
X340899Y235953D01*
X338582Y233636D01*
X336944Y230798D01*
X336095Y227633D01*
Y224355D01*
X336944Y221190D01*
X338582Y218352D01*
X340899Y216035D01*
X343737Y214396D01*
X346903Y213548D01*
X350180D01*
X353345Y214396D01*
X356183Y216035D01*
X358501Y218352D01*
X360139Y221190D01*
X360987Y224355D01*
Y227633D01*
X360139Y230798D01*
X358501Y233636D01*
X356183Y235953D01*
X353345Y237592D01*
X350180Y238440D01*
D02*
G37*
G36*
X75101Y244015D02*
X70898D01*
X66776Y243195D01*
X62893Y241587D01*
X59399Y239252D01*
X56427Y236280D01*
X54092Y232786D01*
X52484Y228903D01*
X51664Y224781D01*
Y220578D01*
X52484Y216456D01*
X54092Y212573D01*
X56427Y209078D01*
X59399Y206106D01*
X62893Y203772D01*
X66776Y202163D01*
X70898Y201343D01*
X75101D01*
X79223Y202163D01*
X83106Y203772D01*
X86601Y206106D01*
X89572Y209078D01*
X91907Y212573D01*
X93516Y216456D01*
X94336Y220578D01*
Y224781D01*
X93516Y228903D01*
X91907Y232786D01*
X89572Y236280D01*
X86601Y239252D01*
X83106Y241587D01*
X79223Y243195D01*
X75101Y244015D01*
D02*
G37*
G36*
X589888Y227122D02*
X585685D01*
X581563Y226302D01*
X577680Y224693D01*
X574186Y222358D01*
X571214Y219387D01*
X568879Y215892D01*
X567270Y212009D01*
X566451Y207887D01*
Y203684D01*
X567270Y199562D01*
X568879Y195679D01*
X571214Y192185D01*
X574186Y189213D01*
X577680Y186878D01*
X581563Y185270D01*
X585685Y184450D01*
X589888D01*
X594010Y185270D01*
X597893Y186878D01*
X601387Y189213D01*
X604359Y192185D01*
X606694Y195679D01*
X608302Y199562D01*
X609123Y203684D01*
Y207887D01*
X608302Y212009D01*
X606694Y215892D01*
X604359Y219387D01*
X601387Y222358D01*
X597893Y224693D01*
X594010Y226302D01*
X589888Y227122D01*
D02*
G37*
G36*
X280090Y240919D02*
X278423D01*
X276882Y240281D01*
X275703Y239102D01*
X275065Y237562D01*
Y235894D01*
X275631Y234529D01*
Y158881D01*
X275630Y158881D01*
X275907Y157494D01*
X276693Y156317D01*
X281720Y151290D01*
X280910Y150303D01*
X280817Y150365D01*
X279430Y150641D01*
X279430Y150641D01*
X268460D01*
X267994Y151107D01*
X266220Y151842D01*
X264300D01*
X262527Y151107D01*
X261169Y149749D01*
X260434Y147976D01*
Y146056D01*
X261169Y144282D01*
X262527Y142924D01*
X264300Y142190D01*
X266220D01*
X267994Y142924D01*
X268460Y143390D01*
X277928D01*
X300055Y121264D01*
X300055Y121264D01*
X301231Y120478D01*
X302618Y120202D01*
X304612D01*
X305318Y119146D01*
X305130Y118691D01*
Y116771D01*
X305864Y114998D01*
X307222Y113640D01*
X308996Y112905D01*
X309005D01*
X309056Y112855D01*
Y90872D01*
X308590Y90407D01*
X307856Y88633D01*
Y86713D01*
X308590Y84939D01*
X309948Y83582D01*
X311722Y82847D01*
X313642D01*
X315415Y83582D01*
X316773Y84939D01*
X317508Y86713D01*
Y88633D01*
X316773Y90407D01*
X316307Y90872D01*
Y114356D01*
X316307Y114356D01*
X316031Y115744D01*
X315245Y116920D01*
X315245Y116920D01*
X314781Y117384D01*
Y118691D01*
X314593Y119146D01*
X315299Y120202D01*
X319265D01*
X320065Y119401D01*
X321839Y118666D01*
X323759D01*
X325533Y119401D01*
X326890Y120759D01*
X327625Y122532D01*
Y124452D01*
X326890Y126226D01*
X325533Y127584D01*
X323759Y128318D01*
X322834D01*
X321790Y129010D01*
X321755Y129492D01*
Y130952D01*
X321020Y132726D01*
X319663Y134084D01*
X317889Y134818D01*
X315969D01*
X314195Y134084D01*
X313244Y133132D01*
X310133D01*
X282882Y160383D01*
Y234529D01*
X283447Y235894D01*
Y237562D01*
X282809Y239102D01*
X281630Y240281D01*
X280090Y240919D01*
D02*
G37*
G36*
X347968Y169697D02*
X344690D01*
X341525Y168849D01*
X338687Y167211D01*
X336370Y164893D01*
X334731Y162055D01*
X333883Y158890D01*
Y155613D01*
X334731Y152447D01*
X336370Y149609D01*
X338687Y147292D01*
X341525Y145654D01*
X344690Y144805D01*
X347968D01*
X351133Y145654D01*
X353971Y147292D01*
X356288Y149609D01*
X357927Y152447D01*
X358775Y155613D01*
Y158890D01*
X357927Y162055D01*
X356288Y164893D01*
X353971Y167211D01*
X351133Y168849D01*
X347968Y169697D01*
D02*
G37*
G36*
X317889Y173936D02*
X315969D01*
X314195Y173201D01*
X312838Y171844D01*
X312103Y170070D01*
Y168150D01*
X312656Y166815D01*
Y147656D01*
X312103Y146321D01*
Y144401D01*
X312838Y142628D01*
X314195Y141270D01*
X315969Y140535D01*
X317889D01*
X319663Y141270D01*
X321020Y142628D01*
X321755Y144401D01*
Y146321D01*
X321202Y147656D01*
Y166815D01*
X321755Y168150D01*
Y170070D01*
X321020Y171844D01*
X319663Y173201D01*
X317889Y173936D01*
D02*
G37*
G36*
X232731Y99567D02*
X230811D01*
X229038Y98833D01*
X227680Y97475D01*
X226945Y95702D01*
Y93782D01*
X227680Y92008D01*
X229038Y90650D01*
X230811Y89916D01*
X231470D01*
X248448Y72938D01*
X248448Y72938D01*
X249624Y72152D01*
X251011Y71876D01*
X251012Y71876D01*
X315885D01*
X316351Y71410D01*
X318125Y70676D01*
X320044D01*
X321818Y71410D01*
X323176Y72768D01*
X323910Y74542D01*
Y76461D01*
X323176Y78235D01*
X321818Y79593D01*
X320044Y80328D01*
X318125D01*
X316351Y79593D01*
X315885Y79127D01*
X252513D01*
X236597Y95043D01*
Y95702D01*
X235863Y97475D01*
X234505Y98833D01*
X232731Y99567D01*
D02*
G37*
%LPD*%
D11*
X316929Y145361D02*
Y169110D01*
D17*
X251011Y75501D02*
X319084D01*
X231771Y94741D02*
X251011Y75501D01*
X279256Y158881D02*
Y236728D01*
Y158881D02*
X308631Y129506D01*
X265260Y147016D02*
X279430D01*
X302618Y123827D01*
X322464D01*
X322799Y123492D01*
X308631Y129506D02*
X316443D01*
X316929Y129992D01*
X309956Y117083D02*
X312682Y114356D01*
X309956Y117083D02*
Y117731D01*
X312682Y87610D02*
Y114356D01*
D46*
X73000Y222679D02*
D03*
X589008Y44920D02*
D03*
X587786Y205786D02*
D03*
X76774Y42311D02*
D03*
D47*
X346329Y157251D02*
D03*
X348541Y225994D02*
D03*
D48*
X264664Y99793D02*
D03*
D49*
X231771Y94741D02*
D03*
X316929Y169110D02*
D03*
Y145361D02*
D03*
X319084Y75501D02*
D03*
X265260Y147016D02*
D03*
X316929Y129992D02*
D03*
X309956Y117731D02*
D03*
X322799Y123492D02*
D03*
X312682Y87673D02*
D03*
D50*
X463273Y110069D02*
D03*
X512458D02*
D03*
X537050D02*
D03*
X487865D02*
D03*
X651358Y99370D02*
D03*
Y25593D02*
D03*
Y74778D02*
D03*
Y50185D02*
D03*
Y123962D02*
D03*
X18585Y109418D02*
D03*
Y134010D02*
D03*
Y11049D02*
D03*
Y60234D02*
D03*
Y35641D02*
D03*
Y84826D02*
D03*
X231148Y236728D02*
D03*
D51*
X279256D02*
D03*
M02*
