G04*
G04 #@! TF.GenerationSoftware,Altium Limited,Altium Designer,23.0.1 (38)*
G04*
G04 Layer_Color=16711935*
%FSLAX44Y44*%
%MOMM*%
G71*
G04*
G04 #@! TF.SameCoordinates,61B169D7-A8E7-49CF-968D-BC901533A6F8*
G04*
G04*
G04 #@! TF.FilePolarity,Negative*
G04*
G01*
G75*
%ADD35C,4.0132*%
%ADD36C,2.2352*%
%ADD37C,0.8382*%
%ADD38C,0.7112*%
%ADD39C,1.4732*%
%ADD40C,0.5842*%
D35*
X73000Y222679D02*
D03*
X589008Y44920D02*
D03*
X587786Y205786D02*
D03*
X76774Y42311D02*
D03*
D36*
X346329Y157251D02*
D03*
X348541Y225994D02*
D03*
D37*
X264664Y99793D02*
D03*
D38*
X231771Y94741D02*
D03*
X316929Y169110D02*
D03*
Y145361D02*
D03*
X319084Y75501D02*
D03*
X265260Y147016D02*
D03*
X316929Y129992D02*
D03*
X309956Y117731D02*
D03*
X322799Y123492D02*
D03*
X312682Y87673D02*
D03*
D39*
X463273Y110069D02*
D03*
X512458D02*
D03*
X537050D02*
D03*
X487865D02*
D03*
X651358Y99370D02*
D03*
Y25593D02*
D03*
Y74778D02*
D03*
Y50185D02*
D03*
Y123962D02*
D03*
X18585Y109418D02*
D03*
Y134010D02*
D03*
Y11049D02*
D03*
Y60234D02*
D03*
Y35641D02*
D03*
Y84826D02*
D03*
X231148Y236728D02*
D03*
D40*
X279256D02*
D03*
M02*
