G04*
G04 #@! TF.GenerationSoftware,Altium Limited,Altium Designer,23.0.1 (38)*
G04*
G04 Layer_Color=128*
%FSLAX44Y44*%
%MOMM*%
G71*
G04*
G04 #@! TF.SameCoordinates,61B169D7-A8E7-49CF-968D-BC901533A6F8*
G04*
G04*
G04 #@! TF.FilePolarity,Positive*
G04*
G01*
G75*
%ADD16C,0.1270*%
D16*
X61570Y222679D02*
X84430D01*
X73000Y211249D02*
Y234109D01*
X341249Y157251D02*
X351409D01*
X346329Y152171D02*
Y162331D01*
X343461Y225994D02*
X353621D01*
X348541Y220914D02*
Y231074D01*
X579483Y44920D02*
X598533D01*
X589008Y35395D02*
Y54445D01*
X578261Y205786D02*
X597312D01*
X587786Y196261D02*
Y215311D01*
X65344Y42311D02*
X88204D01*
X76774Y30881D02*
Y53741D01*
X263394Y99793D02*
X265934D01*
X264664Y98523D02*
Y101063D01*
X230501Y94741D02*
X233041D01*
X231771Y93471D02*
Y96011D01*
X459717Y110069D02*
X466829D01*
X463273Y106512D02*
Y113624D01*
X508902Y110069D02*
X516014D01*
X512458Y106512D02*
Y113624D01*
X533494Y110069D02*
X540606D01*
X537050Y106512D02*
Y113624D01*
X484309Y110069D02*
X491421D01*
X487865Y106512D02*
Y113624D01*
X647802Y99370D02*
X654914D01*
X651358Y95814D02*
Y102926D01*
X647802Y25593D02*
X654914D01*
X651358Y22037D02*
Y29149D01*
X647802Y74778D02*
X654914D01*
X651358Y71222D02*
Y78334D01*
X647802Y50185D02*
X654914D01*
X651358Y46629D02*
Y53741D01*
X647802Y123962D02*
X654914D01*
X651358Y120406D02*
Y127518D01*
X15029Y109418D02*
X22141D01*
X18585Y105862D02*
Y112974D01*
X15029Y134010D02*
X22141D01*
X18585Y130454D02*
Y137566D01*
X15029Y11049D02*
X22141D01*
X18585Y7493D02*
Y14605D01*
X15029Y60234D02*
X22141D01*
X18585Y56678D02*
Y63790D01*
X15029Y35641D02*
X22141D01*
X18585Y32085D02*
Y39197D01*
X15029Y84826D02*
X22141D01*
X18585Y81270D02*
Y88382D01*
X315659Y169110D02*
X318199D01*
X316929Y167840D02*
Y170380D01*
X315659Y145361D02*
X318199D01*
X316929Y144091D02*
Y146631D01*
X317815Y75501D02*
X320354D01*
X319084Y74232D02*
Y76771D01*
X263990Y147016D02*
X266530D01*
X265260Y145746D02*
Y148286D01*
X315659Y129992D02*
X318199D01*
X316929Y128722D02*
Y131262D01*
X308685Y117731D02*
X311225D01*
X309956Y116461D02*
Y119001D01*
X321529Y123492D02*
X324069D01*
X322799Y122222D02*
Y124762D01*
X311412Y87673D02*
X313952D01*
X312682Y86403D02*
Y88943D01*
X277351Y236728D02*
X281161D01*
X279256Y234823D02*
Y238633D01*
X227592Y236728D02*
X234704D01*
X231148Y233172D02*
Y240284D01*
M02*
