G04*
G04 #@! TF.GenerationSoftware,Altium Limited,Altium Designer,23.0.1 (38)*
G04*
G04 Layer_Color=65535*
%FSLAX44Y44*%
%MOMM*%
G71*
G04*
G04 #@! TF.SameCoordinates,61B169D7-A8E7-49CF-968D-BC901533A6F8*
G04*
G04*
G04 #@! TF.FilePolarity,Positive*
G04*
G01*
G75*
%ADD10C,0.4000*%
%ADD11C,0.3810*%
%ADD12C,0.0500*%
%ADD13C,0.0510*%
%ADD14C,0.0800*%
%ADD15C,0.0508*%
%ADD16C,0.1270*%
%ADD17C,0.2540*%
G36*
X507807Y85307D02*
X506319D01*
Y85121D01*
X504831D01*
Y84935D01*
X503715D01*
Y84749D01*
X502785D01*
Y84563D01*
X502041D01*
Y84377D01*
X501297D01*
Y84191D01*
X500739D01*
Y84005D01*
X500181D01*
Y83819D01*
X499622D01*
Y83633D01*
X499064D01*
Y83447D01*
X498692D01*
Y83261D01*
X498134D01*
Y83075D01*
X497762D01*
Y82889D01*
X497204D01*
Y82703D01*
X496832D01*
Y82517D01*
X496460D01*
Y82331D01*
X496088D01*
Y82145D01*
X495716D01*
Y81959D01*
X495344D01*
Y81773D01*
X495530D01*
Y80657D01*
X495344D01*
Y79727D01*
X495158D01*
Y79355D01*
X494972D01*
Y78983D01*
X494786D01*
Y78611D01*
X494600D01*
Y78983D01*
X494414D01*
Y79169D01*
X494228D01*
Y79541D01*
X494042D01*
Y79913D01*
X493856D01*
Y80099D01*
X493670D01*
Y80471D01*
X493484D01*
Y80657D01*
X493298D01*
Y80471D01*
X492926D01*
Y80285D01*
X492740D01*
Y80099D01*
X492368D01*
Y79913D01*
X492182D01*
Y79727D01*
X491810D01*
Y79541D01*
X491624D01*
Y79355D01*
X491438D01*
Y79169D01*
X491252D01*
Y78983D01*
X490880D01*
Y78797D01*
X490694D01*
Y78611D01*
X490508D01*
Y78425D01*
X490322D01*
Y78239D01*
X490135D01*
Y78053D01*
X489949D01*
Y77867D01*
X489577D01*
Y77681D01*
X489392D01*
Y77495D01*
X489205D01*
Y77309D01*
X489019D01*
Y77123D01*
X488833D01*
Y76936D01*
X488647D01*
Y76750D01*
X488461D01*
Y76378D01*
X488275D01*
Y76192D01*
X488089D01*
Y76006D01*
X487903D01*
Y75820D01*
X487717D01*
Y75634D01*
X487531D01*
Y75448D01*
X487345D01*
Y75076D01*
X487159D01*
Y74890D01*
X486973D01*
Y74704D01*
X486787D01*
Y74518D01*
X486601D01*
Y74146D01*
X486415D01*
Y73960D01*
X486229D01*
Y73588D01*
X486043D01*
Y73402D01*
X485857D01*
Y73030D01*
X485671D01*
Y72844D01*
X485485D01*
Y72472D01*
X485299D01*
Y72100D01*
X485113D01*
Y71914D01*
X484927D01*
Y71542D01*
X484741D01*
Y71170D01*
X484555D01*
Y70798D01*
X484369D01*
Y70426D01*
X484183D01*
Y69868D01*
X483997D01*
Y69496D01*
X483811D01*
Y69124D01*
X483625D01*
Y68566D01*
X483439D01*
Y68008D01*
X483253D01*
Y67449D01*
X483067D01*
Y66891D01*
X482881D01*
Y66333D01*
X482695D01*
Y65589D01*
X482509D01*
Y64659D01*
X482323D01*
Y63729D01*
X482137D01*
Y62427D01*
X481951D01*
Y55730D01*
X482137D01*
Y54428D01*
X482323D01*
Y53498D01*
X482509D01*
Y52568D01*
X482695D01*
Y51824D01*
X482881D01*
Y51080D01*
X483067D01*
Y50522D01*
X483253D01*
Y49964D01*
X483439D01*
Y49406D01*
X483625D01*
Y48848D01*
X483811D01*
Y48476D01*
X483997D01*
Y47918D01*
X484183D01*
Y47546D01*
X484369D01*
Y47174D01*
X484555D01*
Y46616D01*
X484741D01*
Y46244D01*
X484927D01*
Y45871D01*
X485113D01*
Y45499D01*
X485299D01*
Y45313D01*
X485485D01*
Y44941D01*
X485671D01*
Y44569D01*
X485857D01*
Y44197D01*
X486043D01*
Y44011D01*
X486229D01*
Y43639D01*
X486415D01*
Y43453D01*
X486601D01*
Y43081D01*
X486787D01*
Y42895D01*
X486973D01*
Y42523D01*
X487159D01*
Y42337D01*
X487345D01*
Y41965D01*
X487531D01*
Y41779D01*
X487717D01*
Y41593D01*
X487903D01*
Y41407D01*
X488089D01*
Y41035D01*
X488275D01*
Y40849D01*
X488461D01*
Y40663D01*
X488647D01*
Y40477D01*
X488833D01*
Y40291D01*
X489019D01*
Y40105D01*
X489205D01*
Y39919D01*
X489392D01*
Y39733D01*
X489577D01*
Y39547D01*
X489763D01*
Y39361D01*
X489949D01*
Y39175D01*
X490135D01*
Y38989D01*
X490322D01*
Y38803D01*
X490508D01*
Y38617D01*
X490694D01*
Y38431D01*
X490880D01*
Y38245D01*
X491066D01*
Y38059D01*
X491252D01*
Y37873D01*
X491624D01*
Y37687D01*
X491810D01*
Y37501D01*
X491996D01*
Y37315D01*
X492182D01*
Y37129D01*
X492554D01*
Y36943D01*
X492740D01*
Y36756D01*
X493112D01*
Y36570D01*
X493298D01*
Y36384D01*
X493670D01*
Y36198D01*
X493856D01*
Y36012D01*
X494228D01*
Y35826D01*
X494414D01*
Y35640D01*
X494786D01*
Y35454D01*
X495158D01*
Y35268D01*
X495530D01*
Y35082D01*
X495902D01*
Y34896D01*
X496274D01*
Y34710D01*
X496646D01*
Y34524D01*
X497018D01*
Y34338D01*
X497576D01*
Y34152D01*
X497948D01*
Y33966D01*
X498506D01*
Y33780D01*
X499064D01*
Y33594D01*
X499622D01*
Y33408D01*
X500367D01*
Y33222D01*
X501111D01*
Y33036D01*
X502041D01*
Y32850D01*
X503157D01*
Y32664D01*
X505017D01*
Y32478D01*
X507993D01*
Y32664D01*
X510039D01*
Y32850D01*
X511156D01*
Y33036D01*
X511900D01*
Y33222D01*
X512830D01*
Y33408D01*
X513388D01*
Y33594D01*
X513946D01*
Y33780D01*
X514504D01*
Y33966D01*
X515062D01*
Y34152D01*
X515620D01*
Y34338D01*
X516178D01*
Y34524D01*
X516550D01*
Y34710D01*
X516922D01*
Y34896D01*
X517294D01*
Y35082D01*
X517666D01*
Y35268D01*
X518038D01*
Y35454D01*
X518410D01*
Y35640D01*
X518782D01*
Y35826D01*
X519154D01*
Y36012D01*
X519526D01*
Y36198D01*
X519712D01*
Y36384D01*
X520084D01*
Y36570D01*
X520271D01*
Y36756D01*
X520643D01*
Y36943D01*
X520829D01*
Y37129D01*
X521201D01*
Y37315D01*
X521387D01*
Y37501D01*
X521759D01*
Y37687D01*
X521945D01*
Y37873D01*
X522131D01*
Y38059D01*
X522317D01*
Y38245D01*
X522689D01*
Y38431D01*
X522875D01*
Y38617D01*
X523061D01*
Y38803D01*
X523247D01*
Y38989D01*
X523433D01*
Y39175D01*
X523619D01*
Y39361D01*
X523805D01*
Y39547D01*
X523991D01*
Y39733D01*
X524363D01*
Y39919D01*
X524549D01*
Y40105D01*
X524735D01*
Y40291D01*
X524921D01*
Y40663D01*
X525107D01*
Y40849D01*
X525293D01*
Y41035D01*
X525479D01*
Y41221D01*
X525665D01*
Y41407D01*
X525851D01*
Y41593D01*
X526037D01*
Y41779D01*
X526223D01*
Y41965D01*
X526409D01*
Y42337D01*
X526595D01*
Y42523D01*
X526781D01*
Y42709D01*
X526967D01*
Y42895D01*
X527153D01*
Y43267D01*
X527339D01*
Y43453D01*
X527525D01*
Y43825D01*
X527711D01*
Y44011D01*
X527897D01*
Y44197D01*
X528083D01*
Y44569D01*
X528269D01*
Y44941D01*
X528455D01*
Y45127D01*
X528641D01*
Y45499D01*
X528827D01*
Y45871D01*
X529013D01*
Y46057D01*
X529199D01*
Y46430D01*
X529385D01*
Y46802D01*
X529571D01*
Y47174D01*
X529757D01*
Y47732D01*
X529943D01*
Y48104D01*
X530129D01*
Y48476D01*
X530315D01*
Y49034D01*
X530502D01*
Y49592D01*
X530687D01*
Y50336D01*
X530873D01*
Y51080D01*
X531059D01*
Y52196D01*
X531245D01*
Y53870D01*
X531432D01*
Y58707D01*
X531245D01*
Y60753D01*
X531059D01*
Y55730D01*
X530873D01*
Y54056D01*
X530687D01*
Y52940D01*
X530502D01*
Y52010D01*
X530315D01*
Y51266D01*
X530129D01*
Y50708D01*
X529943D01*
Y50150D01*
X529757D01*
Y49592D01*
X529571D01*
Y49220D01*
X529385D01*
Y50336D01*
X529571D01*
Y52382D01*
X529757D01*
Y59079D01*
X529571D01*
Y60567D01*
X529385D01*
Y61497D01*
X529199D01*
Y62427D01*
X529013D01*
Y63171D01*
X528827D01*
Y63915D01*
X528641D01*
Y64659D01*
X528455D01*
Y65403D01*
X528269D01*
Y66147D01*
X528083D01*
Y66891D01*
X527897D01*
Y67077D01*
X527711D01*
Y66891D01*
X527897D01*
Y65961D01*
X528083D01*
Y65031D01*
X528269D01*
Y64101D01*
X528455D01*
Y62985D01*
X528641D01*
Y61311D01*
X528827D01*
Y58893D01*
X529013D01*
Y55730D01*
X528827D01*
Y53312D01*
X528641D01*
Y51638D01*
X528455D01*
Y50708D01*
X528269D01*
Y49964D01*
X528083D01*
Y49220D01*
X527897D01*
Y48476D01*
X527711D01*
Y47918D01*
X527525D01*
Y47360D01*
X527339D01*
Y46988D01*
X527153D01*
Y46430D01*
X526967D01*
Y46057D01*
X526781D01*
Y45499D01*
X526595D01*
Y45127D01*
X526409D01*
Y44755D01*
X526223D01*
Y44383D01*
X526037D01*
Y44197D01*
X525851D01*
Y43825D01*
X525665D01*
Y43453D01*
X525479D01*
Y43267D01*
X525293D01*
Y42895D01*
X525107D01*
Y42709D01*
X524921D01*
Y42337D01*
X524735D01*
Y42151D01*
X524549D01*
Y41779D01*
X524363D01*
Y41593D01*
X524177D01*
Y41407D01*
X523991D01*
Y41221D01*
X523805D01*
Y40849D01*
X523619D01*
Y40663D01*
X523433D01*
Y40477D01*
X523247D01*
Y40291D01*
X523061D01*
Y40105D01*
X522875D01*
Y39919D01*
X522689D01*
Y39733D01*
X522503D01*
Y39547D01*
X522317D01*
Y39361D01*
X522131D01*
Y39175D01*
X521945D01*
Y38989D01*
X521759D01*
Y38803D01*
X521573D01*
Y38617D01*
X521387D01*
Y38431D01*
X521015D01*
Y38245D01*
X520829D01*
Y38059D01*
X520643D01*
Y37873D01*
X520457D01*
Y37687D01*
X520084D01*
Y37501D01*
X519898D01*
Y37315D01*
X519526D01*
Y37129D01*
X519340D01*
Y36943D01*
X518968D01*
Y36756D01*
X518782D01*
Y36570D01*
X518410D01*
Y36384D01*
X518224D01*
Y36198D01*
X517852D01*
Y36012D01*
X517480D01*
Y35826D01*
X517108D01*
Y35640D01*
X516736D01*
Y35454D01*
X516364D01*
Y35268D01*
X515992D01*
Y35082D01*
X515620D01*
Y34896D01*
X515248D01*
Y34710D01*
X514876D01*
Y34524D01*
X514318D01*
Y34338D01*
X513760D01*
Y34152D01*
X513202D01*
Y33966D01*
X512644D01*
Y33780D01*
X512086D01*
Y33594D01*
X511714D01*
Y33408D01*
X511342D01*
Y33594D01*
X511528D01*
Y33780D01*
X511714D01*
Y33966D01*
X512086D01*
Y34152D01*
X512272D01*
Y34338D01*
X512458D01*
Y34524D01*
X512644D01*
Y34710D01*
X513016D01*
Y34896D01*
X513202D01*
Y35082D01*
X513388D01*
Y35268D01*
X513574D01*
Y35640D01*
X513760D01*
Y35826D01*
X513946D01*
Y36012D01*
X514132D01*
Y36198D01*
X514318D01*
Y36570D01*
X514504D01*
Y36756D01*
X514690D01*
Y36943D01*
X514876D01*
Y37315D01*
X515062D01*
Y37501D01*
X515248D01*
Y37873D01*
X515434D01*
Y38059D01*
X515620D01*
Y38431D01*
X515806D01*
Y38617D01*
X515992D01*
Y38989D01*
X516178D01*
Y39361D01*
X516364D01*
Y39547D01*
X516550D01*
Y39919D01*
X516736D01*
Y40291D01*
X516922D01*
Y40663D01*
X517108D01*
Y41035D01*
X517294D01*
Y41407D01*
X517480D01*
Y41779D01*
X517666D01*
Y42151D01*
X517852D01*
Y42709D01*
X518038D01*
Y43267D01*
X518224D01*
Y43825D01*
X518410D01*
Y44383D01*
X518596D01*
Y45127D01*
X518782D01*
Y45871D01*
X518968D01*
Y46988D01*
X519154D01*
Y48848D01*
X519340D01*
Y50336D01*
X519154D01*
Y52196D01*
X518968D01*
Y53312D01*
X518782D01*
Y54056D01*
X518596D01*
Y54800D01*
X518410D01*
Y54986D01*
X518224D01*
Y54614D01*
X518410D01*
Y52382D01*
X518596D01*
Y49220D01*
X518410D01*
Y48476D01*
X518224D01*
Y47732D01*
X518038D01*
Y46802D01*
X517852D01*
Y46244D01*
X517666D01*
Y45685D01*
X517480D01*
Y45313D01*
X517294D01*
Y44755D01*
X517108D01*
Y44383D01*
X516922D01*
Y44011D01*
X516736D01*
Y43639D01*
X516550D01*
Y43267D01*
X516364D01*
Y44197D01*
X516550D01*
Y45127D01*
X516736D01*
Y49592D01*
X516550D01*
Y49778D01*
X516364D01*
Y49220D01*
X516178D01*
Y48662D01*
X515992D01*
Y48290D01*
X515806D01*
Y47918D01*
X515620D01*
Y47546D01*
X515434D01*
Y47174D01*
X515248D01*
Y46988D01*
X515062D01*
Y46616D01*
X514876D01*
Y46244D01*
X514690D01*
Y46802D01*
X514876D01*
Y47174D01*
X515062D01*
Y47732D01*
X515248D01*
Y48476D01*
X515434D01*
Y49592D01*
X515620D01*
Y52382D01*
X515434D01*
Y53126D01*
X515248D01*
Y54056D01*
X515062D01*
Y54614D01*
X514876D01*
Y54986D01*
X514690D01*
Y55358D01*
X514504D01*
Y55730D01*
X514318D01*
Y55916D01*
X514132D01*
Y56288D01*
X513946D01*
Y56474D01*
X513760D01*
Y56660D01*
X513574D01*
Y56846D01*
X513388D01*
Y57218D01*
X513202D01*
Y57405D01*
X513016D01*
Y57591D01*
X512830D01*
Y57963D01*
X512644D01*
Y58149D01*
X512458D01*
Y60195D01*
X512272D01*
Y60939D01*
X512086D01*
Y61497D01*
X511900D01*
Y61869D01*
X511714D01*
Y62241D01*
X511528D01*
Y62427D01*
X511156D01*
Y62613D01*
X510970D01*
Y62799D01*
X510597D01*
Y62985D01*
X510225D01*
Y63171D01*
X509667D01*
Y63357D01*
X509109D01*
Y63543D01*
X508551D01*
Y63729D01*
X507993D01*
Y63915D01*
X507621D01*
Y64101D01*
X507063D01*
Y64287D01*
X506691D01*
Y64473D01*
X506319D01*
Y64659D01*
X505761D01*
Y64845D01*
X505389D01*
Y65031D01*
X505017D01*
Y65217D01*
X504645D01*
Y65403D01*
X504273D01*
Y65589D01*
X503901D01*
Y65775D01*
X503529D01*
Y65961D01*
X503157D01*
Y66333D01*
X504831D01*
Y66147D01*
X506505D01*
Y65961D01*
X508365D01*
Y65775D01*
X512086D01*
Y65961D01*
X512272D01*
Y65775D01*
X512458D01*
Y65589D01*
X512644D01*
Y65403D01*
X512830D01*
Y65217D01*
X513016D01*
Y65031D01*
X513202D01*
Y64845D01*
X513388D01*
Y64659D01*
X513574D01*
Y64473D01*
X513760D01*
Y64101D01*
X513946D01*
Y63729D01*
X514132D01*
Y63357D01*
X514318D01*
Y62985D01*
X514504D01*
Y62799D01*
X514690D01*
Y62427D01*
X514876D01*
Y62055D01*
X515062D01*
Y61683D01*
X515248D01*
Y61497D01*
X515434D01*
Y61311D01*
X515620D01*
Y60939D01*
X515806D01*
Y60567D01*
X515992D01*
Y60009D01*
X516178D01*
Y59637D01*
X516364D01*
Y59265D01*
X516550D01*
Y59637D01*
X516364D01*
Y60381D01*
X516178D01*
Y61125D01*
X515992D01*
Y61497D01*
X515806D01*
Y61869D01*
X515620D01*
Y62241D01*
X515434D01*
Y62613D01*
X515248D01*
Y62985D01*
X515062D01*
Y63357D01*
X514876D01*
Y63729D01*
X514690D01*
Y64101D01*
X514504D01*
Y64473D01*
X514318D01*
Y64845D01*
X514132D01*
Y65217D01*
X513946D01*
Y65589D01*
X513760D01*
Y65775D01*
X513574D01*
Y65961D01*
X513388D01*
Y66333D01*
X513760D01*
Y66519D01*
X514132D01*
Y66705D01*
X514318D01*
Y66891D01*
X514504D01*
Y67077D01*
X514876D01*
Y66891D01*
X515062D01*
Y66705D01*
X515248D01*
Y66519D01*
X515434D01*
Y66147D01*
X515620D01*
Y65961D01*
X515806D01*
Y65775D01*
X515992D01*
Y65589D01*
X516178D01*
Y65403D01*
X516364D01*
Y65217D01*
X516550D01*
Y64845D01*
X516736D01*
Y64659D01*
X516922D01*
Y64473D01*
X517108D01*
Y64101D01*
X517294D01*
Y63729D01*
X517480D01*
Y63357D01*
X517666D01*
Y62985D01*
X517852D01*
Y62427D01*
X518038D01*
Y62055D01*
X518224D01*
Y61497D01*
X518410D01*
Y60939D01*
X518596D01*
Y60567D01*
X518782D01*
Y60009D01*
X518968D01*
Y59637D01*
X519154D01*
Y59265D01*
X519340D01*
Y58707D01*
X519526D01*
Y58521D01*
X519712D01*
Y58149D01*
X519898D01*
Y57591D01*
X520084D01*
Y57218D01*
X520271D01*
Y56474D01*
X520457D01*
Y55730D01*
X520643D01*
Y54986D01*
X520829D01*
Y54428D01*
X521015D01*
Y54056D01*
X521201D01*
Y54428D01*
X521015D01*
Y55358D01*
X520829D01*
Y57405D01*
X520643D01*
Y58335D01*
X520457D01*
Y58707D01*
X520271D01*
Y59265D01*
X520084D01*
Y59823D01*
X519898D01*
Y60381D01*
X519712D01*
Y60939D01*
X519526D01*
Y61497D01*
X519340D01*
Y62055D01*
X519154D01*
Y62613D01*
X518968D01*
Y63171D01*
X518782D01*
Y63729D01*
X518596D01*
Y64101D01*
X518410D01*
Y64659D01*
X518224D01*
Y65031D01*
X518038D01*
Y65403D01*
X517852D01*
Y65775D01*
X517666D01*
Y66147D01*
X517480D01*
Y66333D01*
X517294D01*
Y66705D01*
X517108D01*
Y66891D01*
X516922D01*
Y67263D01*
X516736D01*
Y67449D01*
X516550D01*
Y67635D01*
X516364D01*
Y68008D01*
X516178D01*
Y68194D01*
X515992D01*
Y68380D01*
X515620D01*
Y68752D01*
X515806D01*
Y68938D01*
X516178D01*
Y69124D01*
X516550D01*
Y69310D01*
X517108D01*
Y69124D01*
X517666D01*
Y68938D01*
X518038D01*
Y68752D01*
X518224D01*
Y68566D01*
X518410D01*
Y68380D01*
X518596D01*
Y68194D01*
X518782D01*
Y68380D01*
X518596D01*
Y68566D01*
X518410D01*
Y68752D01*
X518224D01*
Y68938D01*
X518038D01*
Y69124D01*
X517852D01*
Y69310D01*
X517666D01*
Y69496D01*
X517480D01*
Y69682D01*
X517294D01*
Y69868D01*
X516922D01*
Y70054D01*
X516550D01*
Y70240D01*
X515434D01*
Y70054D01*
X515062D01*
Y69868D01*
X514876D01*
Y69682D01*
X514504D01*
Y69496D01*
X514318D01*
Y69310D01*
X513946D01*
Y69124D01*
X513574D01*
Y68938D01*
X513202D01*
Y68752D01*
X512644D01*
Y68566D01*
X512272D01*
Y68380D01*
X511714D01*
Y68194D01*
X511156D01*
Y68008D01*
X510597D01*
Y67822D01*
X509853D01*
Y67635D01*
X509109D01*
Y67449D01*
X508179D01*
Y67263D01*
X506505D01*
Y67077D01*
X505575D01*
Y67263D01*
X503901D01*
Y67449D01*
X500739D01*
Y67263D01*
X499436D01*
Y67077D01*
X498878D01*
Y66891D01*
X498320D01*
Y66705D01*
X497948D01*
Y66519D01*
X497762D01*
Y66333D01*
X497576D01*
Y66147D01*
X497390D01*
Y68008D01*
X497762D01*
Y68194D01*
X498506D01*
Y68380D01*
X498692D01*
Y68566D01*
X498878D01*
Y68752D01*
X499064D01*
Y69124D01*
X499250D01*
Y69496D01*
X499436D01*
Y69868D01*
X499622D01*
Y70240D01*
X499436D01*
Y70426D01*
X499250D01*
Y70798D01*
X499064D01*
Y71170D01*
X498878D01*
Y71356D01*
X498692D01*
Y71728D01*
X498878D01*
Y71914D01*
X499064D01*
Y72286D01*
X499250D01*
Y72658D01*
X499436D01*
Y73030D01*
X499622D01*
Y73402D01*
X499809D01*
Y73588D01*
X499995D01*
Y74146D01*
X500181D01*
Y74518D01*
X500367D01*
Y75262D01*
X500552D01*
Y76192D01*
X500739D01*
Y76006D01*
X500925D01*
Y75820D01*
X501111D01*
Y75634D01*
X501297D01*
Y75448D01*
X501483D01*
Y75262D01*
X501669D01*
Y75076D01*
X501855D01*
Y74704D01*
X502041D01*
Y74518D01*
X502227D01*
Y74332D01*
X502413D01*
Y74146D01*
X502599D01*
Y73960D01*
X502785D01*
Y73774D01*
X502971D01*
Y73588D01*
X503157D01*
Y73402D01*
X503343D01*
Y73216D01*
X503529D01*
Y73030D01*
X503715D01*
Y72844D01*
X504273D01*
Y72658D01*
X504645D01*
Y72844D01*
X504459D01*
Y73030D01*
X503901D01*
Y73216D01*
X503715D01*
Y73402D01*
X503529D01*
Y73588D01*
X503343D01*
Y73960D01*
X503157D01*
Y74146D01*
X502971D01*
Y74332D01*
X502785D01*
Y74518D01*
X502599D01*
Y74704D01*
X502413D01*
Y74890D01*
X502227D01*
Y75262D01*
X502041D01*
Y75634D01*
X501855D01*
Y76564D01*
X501669D01*
Y77495D01*
X501483D01*
Y78983D01*
X501297D01*
Y81401D01*
X501483D01*
Y82889D01*
X501669D01*
Y82517D01*
X501855D01*
Y81959D01*
X502041D01*
Y81401D01*
X502227D01*
Y80843D01*
X502413D01*
Y80657D01*
X502599D01*
Y80285D01*
X502785D01*
Y80099D01*
X502971D01*
Y79727D01*
X503157D01*
Y79541D01*
X503343D01*
Y79355D01*
X503529D01*
Y78983D01*
X503715D01*
Y78797D01*
X503901D01*
Y78611D01*
X504087D01*
Y78239D01*
X504273D01*
Y78053D01*
X504459D01*
Y77681D01*
X504645D01*
Y77495D01*
X504831D01*
Y77309D01*
X505017D01*
Y76936D01*
X505203D01*
Y76750D01*
X505389D01*
Y76564D01*
X505575D01*
Y76192D01*
X505761D01*
Y76006D01*
X505947D01*
Y75634D01*
X506133D01*
Y75448D01*
X506319D01*
Y75076D01*
X506505D01*
Y74704D01*
X506691D01*
Y74518D01*
X506877D01*
Y74146D01*
X507063D01*
Y73774D01*
X507249D01*
Y73402D01*
X507435D01*
Y73030D01*
X507621D01*
Y72658D01*
X507807D01*
Y72100D01*
X507993D01*
Y71914D01*
X508365D01*
Y71728D01*
X508737D01*
Y71542D01*
X509109D01*
Y71356D01*
X509481D01*
Y71170D01*
X509667D01*
Y70984D01*
X510039D01*
Y71170D01*
X509853D01*
Y71356D01*
X509481D01*
Y71542D01*
X509295D01*
Y71728D01*
X508923D01*
Y71914D01*
X508737D01*
Y72100D01*
X508365D01*
Y72286D01*
X508179D01*
Y72658D01*
X507993D01*
Y73030D01*
X507807D01*
Y73402D01*
X507621D01*
Y73960D01*
X508923D01*
Y73774D01*
X510411D01*
Y73588D01*
X511342D01*
Y73402D01*
X511900D01*
Y73216D01*
X512458D01*
Y73030D01*
X513016D01*
Y72844D01*
X513388D01*
Y72658D01*
X513946D01*
Y72472D01*
X514318D01*
Y72286D01*
X514690D01*
Y72100D01*
X515062D01*
Y71914D01*
X515434D01*
Y71728D01*
X515806D01*
Y71542D01*
X515992D01*
Y71356D01*
X516364D01*
Y71170D01*
X516736D01*
Y70984D01*
X516922D01*
Y70798D01*
X517294D01*
Y70612D01*
X517480D01*
Y70426D01*
X517852D01*
Y70240D01*
X518038D01*
Y70054D01*
X518224D01*
Y69868D01*
X518596D01*
Y69682D01*
X518782D01*
Y69496D01*
X518968D01*
Y69310D01*
X519340D01*
Y69124D01*
X519526D01*
Y68938D01*
X519712D01*
Y69310D01*
X519526D01*
Y69496D01*
X519340D01*
Y69868D01*
X519154D01*
Y70240D01*
X518968D01*
Y70426D01*
X518782D01*
Y70798D01*
X518596D01*
Y70984D01*
X518410D01*
Y71356D01*
X518224D01*
Y71542D01*
X518038D01*
Y71914D01*
X517852D01*
Y72100D01*
X517666D01*
Y72286D01*
X517480D01*
Y72658D01*
X517294D01*
Y72844D01*
X517108D01*
Y73030D01*
X516922D01*
Y73216D01*
X517108D01*
Y73030D01*
X517480D01*
Y72844D01*
X517666D01*
Y72658D01*
X517852D01*
Y72472D01*
X518038D01*
Y72286D01*
X518410D01*
Y72100D01*
X518596D01*
Y71914D01*
X518782D01*
Y71728D01*
X518968D01*
Y71542D01*
X519340D01*
Y71356D01*
X519526D01*
Y71170D01*
X519712D01*
Y70984D01*
X519898D01*
Y70798D01*
X520084D01*
Y70612D01*
X520271D01*
Y70426D01*
X520457D01*
Y70054D01*
X520643D01*
Y69868D01*
X520829D01*
Y69682D01*
X521015D01*
Y69496D01*
X521201D01*
Y69310D01*
X521387D01*
Y68938D01*
X521573D01*
Y68752D01*
X521759D01*
Y68380D01*
X521945D01*
Y68194D01*
X522131D01*
Y67822D01*
X522317D01*
Y67635D01*
X522503D01*
Y67263D01*
X522689D01*
Y67077D01*
X522875D01*
Y66705D01*
X523061D01*
Y66333D01*
X523247D01*
Y65961D01*
X523433D01*
Y65403D01*
X523619D01*
Y65031D01*
X523805D01*
Y64473D01*
X523991D01*
Y63915D01*
X524177D01*
Y63357D01*
X524363D01*
Y62799D01*
X524549D01*
Y62055D01*
X524735D01*
Y61125D01*
X524921D01*
Y59637D01*
X525107D01*
Y54800D01*
X524921D01*
Y53870D01*
X524735D01*
Y52754D01*
X524549D01*
Y52010D01*
X524363D01*
Y51266D01*
X524177D01*
Y50708D01*
X523991D01*
Y50150D01*
X523805D01*
Y49592D01*
X523619D01*
Y49220D01*
X523433D01*
Y48662D01*
X523247D01*
Y48290D01*
X523061D01*
Y47918D01*
X522875D01*
Y47546D01*
X522689D01*
Y47174D01*
X522503D01*
Y46988D01*
X522317D01*
Y46616D01*
X522503D01*
Y46802D01*
X522689D01*
Y46988D01*
X522875D01*
Y47360D01*
X523061D01*
Y47546D01*
X523247D01*
Y47918D01*
X523433D01*
Y48290D01*
X523619D01*
Y48662D01*
X523805D01*
Y49034D01*
X523991D01*
Y49406D01*
X524177D01*
Y49778D01*
X524363D01*
Y50150D01*
X524549D01*
Y50522D01*
X524735D01*
Y51080D01*
X524921D01*
Y51452D01*
X525107D01*
Y52010D01*
X525293D01*
Y52754D01*
X525479D01*
Y53684D01*
X525665D01*
Y54614D01*
X525851D01*
Y55544D01*
X526037D01*
Y56846D01*
X526223D01*
Y60753D01*
X526037D01*
Y62241D01*
X525851D01*
Y63357D01*
X525665D01*
Y64101D01*
X525479D01*
Y64845D01*
X525293D01*
Y65403D01*
X525107D01*
Y65961D01*
X524921D01*
Y66333D01*
X524735D01*
Y66891D01*
X524549D01*
Y67263D01*
X524363D01*
Y67635D01*
X524177D01*
Y68008D01*
X523991D01*
Y68380D01*
X523805D01*
Y68752D01*
X523619D01*
Y69124D01*
X523433D01*
Y69496D01*
X523247D01*
Y69682D01*
X523061D01*
Y70054D01*
X522875D01*
Y70240D01*
X522689D01*
Y70426D01*
X522503D01*
Y70612D01*
X522317D01*
Y70984D01*
X522131D01*
Y71170D01*
X521945D01*
Y71356D01*
X521759D01*
Y71542D01*
X521573D01*
Y71728D01*
X521387D01*
Y72100D01*
X521201D01*
Y72286D01*
X521387D01*
Y72100D01*
X521573D01*
Y71914D01*
X521945D01*
Y71728D01*
X522131D01*
Y71542D01*
X522503D01*
Y71356D01*
X522689D01*
Y71170D01*
X522875D01*
Y70984D01*
X523247D01*
Y70798D01*
X523433D01*
Y70612D01*
X523619D01*
Y70426D01*
X523805D01*
Y70240D01*
X523991D01*
Y70054D01*
X524177D01*
Y69682D01*
X524363D01*
Y69496D01*
X524549D01*
Y69310D01*
X524735D01*
Y68938D01*
X524921D01*
Y68752D01*
X525107D01*
Y68380D01*
X525293D01*
Y68008D01*
X525479D01*
Y67822D01*
X525665D01*
Y67263D01*
X525851D01*
Y66891D01*
X526037D01*
Y66519D01*
X526223D01*
Y65775D01*
X526409D01*
Y66891D01*
X526223D01*
Y67822D01*
X526037D01*
Y68566D01*
X525851D01*
Y69124D01*
X525665D01*
Y69496D01*
X525479D01*
Y70054D01*
X525293D01*
Y70426D01*
X525107D01*
Y70612D01*
X524921D01*
Y70984D01*
X524735D01*
Y71356D01*
X524549D01*
Y71542D01*
X524363D01*
Y71728D01*
X524177D01*
Y72100D01*
X523991D01*
Y72286D01*
X523805D01*
Y72472D01*
X523619D01*
Y72658D01*
X523433D01*
Y72844D01*
X523247D01*
Y73030D01*
X522875D01*
Y73216D01*
X522689D01*
Y73402D01*
X522503D01*
Y73588D01*
X522317D01*
Y73774D01*
X521945D01*
Y73960D01*
X521759D01*
Y74146D01*
X521387D01*
Y74332D01*
X521015D01*
Y74518D01*
X520643D01*
Y74704D01*
X520271D01*
Y74890D01*
X519898D01*
Y75076D01*
X519340D01*
Y75262D01*
X518782D01*
Y75448D01*
X518224D01*
Y75634D01*
X517666D01*
Y75820D01*
X516922D01*
Y76006D01*
X516178D01*
Y76192D01*
X517294D01*
Y76006D01*
X518224D01*
Y75820D01*
X519154D01*
Y75634D01*
X519898D01*
Y75448D01*
X520457D01*
Y75262D01*
X521015D01*
Y75076D01*
X521573D01*
Y74890D01*
X521945D01*
Y74704D01*
X522317D01*
Y74518D01*
X522689D01*
Y74332D01*
X523061D01*
Y74146D01*
X523247D01*
Y73960D01*
X523619D01*
Y73774D01*
X523805D01*
Y73588D01*
X524177D01*
Y73402D01*
X524363D01*
Y73216D01*
X524549D01*
Y73030D01*
X524921D01*
Y72844D01*
X525107D01*
Y72658D01*
X525293D01*
Y72472D01*
X525479D01*
Y72286D01*
X525665D01*
Y72100D01*
X525851D01*
Y71914D01*
X526037D01*
Y71728D01*
X526223D01*
Y71356D01*
X526409D01*
Y71170D01*
X526595D01*
Y70984D01*
X526781D01*
Y70612D01*
X526967D01*
Y70426D01*
X527153D01*
Y70240D01*
X527339D01*
Y69868D01*
X527525D01*
Y69496D01*
X527711D01*
Y69124D01*
X527897D01*
Y68938D01*
X528083D01*
Y68380D01*
X528269D01*
Y68008D01*
X528455D01*
Y67635D01*
X528641D01*
Y67263D01*
X528827D01*
Y66705D01*
X529013D01*
Y66147D01*
X529199D01*
Y65403D01*
X529385D01*
Y66705D01*
X529199D01*
Y67822D01*
X529013D01*
Y68566D01*
X528827D01*
Y69124D01*
X528641D01*
Y69682D01*
X528455D01*
Y70054D01*
X528269D01*
Y70426D01*
X528083D01*
Y70798D01*
X527897D01*
Y71170D01*
X527711D01*
Y71542D01*
X527525D01*
Y71728D01*
X527339D01*
Y72100D01*
X527153D01*
Y72286D01*
X526967D01*
Y72472D01*
X526781D01*
Y72844D01*
X526595D01*
Y73030D01*
X526409D01*
Y73216D01*
X526223D01*
Y73402D01*
X526037D01*
Y73588D01*
X525851D01*
Y73774D01*
X525665D01*
Y73960D01*
X525479D01*
Y74146D01*
X525293D01*
Y74332D01*
X524921D01*
Y74518D01*
X524735D01*
Y74704D01*
X524549D01*
Y74890D01*
X524177D01*
Y75076D01*
X523991D01*
Y75262D01*
X523619D01*
Y75448D01*
X523433D01*
Y75634D01*
X523061D01*
Y75820D01*
X522689D01*
Y76006D01*
X522317D01*
Y76192D01*
X521945D01*
Y76378D01*
X521573D01*
Y76564D01*
X521201D01*
Y76750D01*
X520643D01*
Y76936D01*
X520084D01*
Y77123D01*
X519526D01*
Y77309D01*
X518782D01*
Y77495D01*
X518038D01*
Y77681D01*
X517108D01*
Y77867D01*
X515806D01*
Y78053D01*
X512272D01*
Y77867D01*
X510784D01*
Y77681D01*
X509667D01*
Y77495D01*
X508737D01*
Y77309D01*
X508923D01*
Y77123D01*
X509667D01*
Y76936D01*
X510225D01*
Y76750D01*
X510784D01*
Y76378D01*
X510597D01*
Y76564D01*
X510411D01*
Y76378D01*
X508923D01*
Y76192D01*
X508365D01*
Y76006D01*
X507807D01*
Y75820D01*
X507435D01*
Y75634D01*
X507063D01*
Y75448D01*
X506691D01*
Y75634D01*
X506505D01*
Y76006D01*
X506319D01*
Y76192D01*
X506133D01*
Y76378D01*
X505947D01*
Y76564D01*
X505761D01*
Y76936D01*
X505575D01*
Y77123D01*
X505389D01*
Y77309D01*
X505203D01*
Y77495D01*
X505017D01*
Y77867D01*
X505389D01*
Y78053D01*
X505761D01*
Y78239D01*
X506133D01*
Y78425D01*
X506691D01*
Y78611D01*
X507249D01*
Y78797D01*
X507621D01*
Y78983D01*
X508179D01*
Y79169D01*
X508737D01*
Y79355D01*
X509481D01*
Y79541D01*
X510225D01*
Y79727D01*
X511342D01*
Y79913D01*
X516736D01*
Y80099D01*
X517666D01*
Y80285D01*
X518410D01*
Y80471D01*
X518968D01*
Y80657D01*
X519340D01*
Y80843D01*
X519898D01*
Y81029D01*
X520271D01*
Y81215D01*
X520643D01*
Y81401D01*
X521015D01*
Y81587D01*
X521387D01*
Y81773D01*
X521573D01*
Y81959D01*
X521945D01*
Y81773D01*
X521759D01*
Y81401D01*
X521573D01*
Y81215D01*
X521387D01*
Y81029D01*
X521201D01*
Y80843D01*
X521015D01*
Y80657D01*
X520829D01*
Y80471D01*
X520643D01*
Y80285D01*
X520457D01*
Y80099D01*
X520271D01*
Y79913D01*
X520084D01*
Y79727D01*
X519898D01*
Y79541D01*
X519712D01*
Y78983D01*
X520643D01*
Y78797D01*
X521945D01*
Y78611D01*
X524549D01*
Y78797D01*
X525851D01*
Y78983D01*
X526595D01*
Y79169D01*
X527153D01*
Y79355D01*
X527525D01*
Y79541D01*
X528083D01*
Y79727D01*
X528455D01*
Y79913D01*
X528827D01*
Y80099D01*
X529199D01*
Y80285D01*
X529571D01*
Y80471D01*
X529757D01*
Y80657D01*
X530129D01*
Y80843D01*
X530315D01*
Y81029D01*
X530502D01*
Y81215D01*
X530687D01*
Y81401D01*
X530873D01*
Y81587D01*
X531245D01*
Y81401D01*
X531059D01*
Y81215D01*
X530873D01*
Y81029D01*
X530687D01*
Y80843D01*
X530502D01*
Y80657D01*
X530315D01*
Y80471D01*
X530129D01*
Y80285D01*
X529943D01*
Y80099D01*
X529757D01*
Y79913D01*
X529571D01*
Y79727D01*
X529385D01*
Y79541D01*
X529199D01*
Y79355D01*
X529013D01*
Y79169D01*
X528641D01*
Y78983D01*
X528455D01*
Y78797D01*
X528083D01*
Y78611D01*
X527897D01*
Y78425D01*
X527525D01*
Y78239D01*
X527153D01*
Y78053D01*
X526595D01*
Y77867D01*
X526037D01*
Y77681D01*
X525479D01*
Y77495D01*
X525665D01*
Y77309D01*
X526781D01*
Y77123D01*
X527711D01*
Y76936D01*
X528827D01*
Y76750D01*
X533664D01*
Y76936D01*
X534594D01*
Y77123D01*
X535152D01*
Y77309D01*
X535710D01*
Y77495D01*
X536082D01*
Y77681D01*
X536454D01*
Y77867D01*
X536826D01*
Y78053D01*
X537198D01*
Y78239D01*
X537384D01*
Y78425D01*
X537756D01*
Y78611D01*
X537942D01*
Y78797D01*
X538128D01*
Y78983D01*
X538314D01*
Y79169D01*
X538500D01*
Y79355D01*
X538686D01*
Y79541D01*
X538872D01*
Y79169D01*
X538686D01*
Y78983D01*
X538500D01*
Y78797D01*
X538314D01*
Y78611D01*
X538128D01*
Y78239D01*
X537942D01*
Y78053D01*
X537756D01*
Y77867D01*
X537570D01*
Y77681D01*
X537384D01*
Y77495D01*
X537198D01*
Y77309D01*
X536826D01*
Y77123D01*
X536640D01*
Y76936D01*
X536454D01*
Y76750D01*
X536268D01*
Y76564D01*
X535896D01*
Y76378D01*
X535710D01*
Y76192D01*
X535338D01*
Y76006D01*
X534966D01*
Y75820D01*
X534594D01*
Y75634D01*
X534222D01*
Y75448D01*
X533850D01*
Y75262D01*
X533292D01*
Y75076D01*
X532548D01*
Y74890D01*
X531618D01*
Y74704D01*
X529943D01*
Y74518D01*
X530129D01*
Y74332D01*
X530502D01*
Y74146D01*
X530687D01*
Y73960D01*
X530873D01*
Y73774D01*
X531245D01*
Y73588D01*
X531432D01*
Y73402D01*
X531618D01*
Y73216D01*
X531990D01*
Y73030D01*
X532176D01*
Y72844D01*
X532362D01*
Y72658D01*
X532548D01*
Y72472D01*
X532734D01*
Y72286D01*
X532920D01*
Y72100D01*
X533106D01*
Y71914D01*
X533292D01*
Y71728D01*
X533478D01*
Y71542D01*
X533664D01*
Y71356D01*
X533850D01*
Y71170D01*
X534036D01*
Y70984D01*
X534222D01*
Y70798D01*
X534408D01*
Y70612D01*
X534594D01*
Y70426D01*
X534780D01*
Y70240D01*
X534966D01*
Y70054D01*
X535152D01*
Y69682D01*
X535338D01*
Y69496D01*
X535524D01*
Y69310D01*
X535710D01*
Y69124D01*
X535896D01*
Y68752D01*
X536082D01*
Y68566D01*
X536268D01*
Y68194D01*
X536454D01*
Y68008D01*
X536640D01*
Y67822D01*
X536826D01*
Y67449D01*
X537012D01*
Y67077D01*
X537198D01*
Y66891D01*
X537384D01*
Y66519D01*
X537570D01*
Y66147D01*
X537756D01*
Y65775D01*
X537942D01*
Y65403D01*
X538128D01*
Y64845D01*
X538314D01*
Y64473D01*
X538500D01*
Y63915D01*
X538686D01*
Y63357D01*
X538872D01*
Y62799D01*
X539058D01*
Y62241D01*
X539244D01*
Y61497D01*
X539430D01*
Y60753D01*
X539616D01*
Y60009D01*
X539802D01*
Y59079D01*
X539988D01*
Y58521D01*
X540174D01*
Y57963D01*
X540360D01*
Y57405D01*
X540546D01*
Y57032D01*
X540732D01*
Y56846D01*
X540919D01*
Y56660D01*
X541105D01*
Y56474D01*
X540732D01*
Y56660D01*
X540546D01*
Y56846D01*
X540174D01*
Y57032D01*
X539988D01*
Y57218D01*
X539802D01*
Y57405D01*
X539616D01*
Y57591D01*
X539430D01*
Y57777D01*
X539244D01*
Y57963D01*
X539058D01*
Y58335D01*
X538686D01*
Y58149D01*
X538872D01*
Y56474D01*
X539058D01*
Y52196D01*
X538872D01*
Y50708D01*
X538686D01*
Y49778D01*
X538500D01*
Y49034D01*
X538314D01*
Y48290D01*
X538128D01*
Y47546D01*
X537942D01*
Y46988D01*
X537756D01*
Y46430D01*
X537570D01*
Y45871D01*
X537384D01*
Y45313D01*
X537198D01*
Y44941D01*
X537012D01*
Y44383D01*
X536826D01*
Y44011D01*
X536640D01*
Y43639D01*
X536454D01*
Y43267D01*
X536268D01*
Y42895D01*
X536082D01*
Y42523D01*
X535896D01*
Y42151D01*
X535710D01*
Y41779D01*
X535524D01*
Y41593D01*
X535338D01*
Y41221D01*
X535152D01*
Y40849D01*
X534966D01*
Y40663D01*
X534780D01*
Y40291D01*
X534594D01*
Y39919D01*
X534408D01*
Y39733D01*
X534222D01*
Y39361D01*
X534036D01*
Y39175D01*
X533850D01*
Y38803D01*
X533664D01*
Y38617D01*
X533478D01*
Y38245D01*
X533292D01*
Y38059D01*
X533106D01*
Y37873D01*
X532920D01*
Y37501D01*
X532734D01*
Y37315D01*
X532548D01*
Y37129D01*
X532362D01*
Y36756D01*
X532176D01*
Y36570D01*
X531990D01*
Y36384D01*
X531804D01*
Y36198D01*
X531618D01*
Y36012D01*
X531432D01*
Y35640D01*
X531245D01*
Y35454D01*
X531059D01*
Y35268D01*
X530873D01*
Y35082D01*
X530687D01*
Y34896D01*
X530502D01*
Y34710D01*
X530315D01*
Y34524D01*
X530129D01*
Y34338D01*
X529943D01*
Y34152D01*
X529757D01*
Y33966D01*
X529571D01*
Y33780D01*
X529385D01*
Y33594D01*
X529199D01*
Y33408D01*
X529013D01*
Y33222D01*
X528827D01*
Y33036D01*
X528641D01*
Y32850D01*
X528455D01*
Y32664D01*
X528269D01*
Y32478D01*
X528083D01*
Y32292D01*
X527897D01*
Y32106D01*
X527711D01*
Y31920D01*
X527525D01*
Y31734D01*
X527339D01*
Y31548D01*
X527153D01*
Y31362D01*
X526967D01*
Y31176D01*
X526781D01*
Y30990D01*
X526409D01*
Y31176D01*
X526595D01*
Y31362D01*
X526781D01*
Y31548D01*
X526967D01*
Y31734D01*
X527153D01*
Y32106D01*
X527339D01*
Y32292D01*
X527525D01*
Y32478D01*
X527711D01*
Y32664D01*
X527897D01*
Y32850D01*
X528083D01*
Y33222D01*
X528269D01*
Y33408D01*
X528455D01*
Y33594D01*
X528641D01*
Y33780D01*
X528827D01*
Y34152D01*
X529013D01*
Y34338D01*
X529199D01*
Y34524D01*
X529385D01*
Y34896D01*
X529571D01*
Y35082D01*
X529757D01*
Y35268D01*
X529943D01*
Y35640D01*
X530129D01*
Y35826D01*
X530315D01*
Y36198D01*
X530502D01*
Y36384D01*
X530687D01*
Y36756D01*
X530873D01*
Y37129D01*
X531059D01*
Y37315D01*
X531245D01*
Y37687D01*
X531432D01*
Y38059D01*
X531618D01*
Y38245D01*
X531804D01*
Y38617D01*
X531990D01*
Y38989D01*
X532176D01*
Y39361D01*
X532362D01*
Y39733D01*
X532548D01*
Y40105D01*
X532734D01*
Y40477D01*
X532920D01*
Y40849D01*
X533106D01*
Y41221D01*
X533292D01*
Y41779D01*
X533478D01*
Y42151D01*
X533664D01*
Y42709D01*
X533850D01*
Y43081D01*
X534036D01*
Y43639D01*
X534222D01*
Y44197D01*
X534408D01*
Y44941D01*
X534594D01*
Y45499D01*
X534780D01*
Y46244D01*
X534966D01*
Y47174D01*
X535152D01*
Y48290D01*
X535338D01*
Y49592D01*
X535524D01*
Y55358D01*
X535338D01*
Y52940D01*
X535152D01*
Y51638D01*
X534966D01*
Y50336D01*
X534780D01*
Y49220D01*
X534594D01*
Y48290D01*
X534408D01*
Y47732D01*
X534222D01*
Y46988D01*
X534036D01*
Y46430D01*
X533850D01*
Y45871D01*
X533664D01*
Y45313D01*
X533478D01*
Y44755D01*
X533292D01*
Y44383D01*
X533106D01*
Y43825D01*
X532920D01*
Y43453D01*
X532734D01*
Y43081D01*
X532548D01*
Y42709D01*
X532362D01*
Y42337D01*
X532176D01*
Y41965D01*
X531990D01*
Y41593D01*
X531804D01*
Y41221D01*
X531618D01*
Y40849D01*
X531432D01*
Y40477D01*
X531245D01*
Y40105D01*
X531059D01*
Y39919D01*
X530873D01*
Y39547D01*
X530687D01*
Y39361D01*
X530502D01*
Y38989D01*
X530315D01*
Y38803D01*
X530129D01*
Y38431D01*
X529943D01*
Y38245D01*
X529757D01*
Y37873D01*
X529571D01*
Y37687D01*
X529385D01*
Y37501D01*
X529199D01*
Y37315D01*
X529013D01*
Y36943D01*
X528827D01*
Y36756D01*
X528641D01*
Y36570D01*
X528455D01*
Y36384D01*
X528269D01*
Y36198D01*
X528083D01*
Y35826D01*
X527897D01*
Y35640D01*
X527711D01*
Y35454D01*
X527525D01*
Y35268D01*
X527339D01*
Y35082D01*
X527153D01*
Y34896D01*
X526967D01*
Y34710D01*
X526781D01*
Y34524D01*
X526595D01*
Y34338D01*
X526409D01*
Y34152D01*
X526223D01*
Y33966D01*
X526037D01*
Y33780D01*
X525851D01*
Y33594D01*
X525665D01*
Y33408D01*
X525293D01*
Y33222D01*
X525107D01*
Y33036D01*
X524921D01*
Y32850D01*
X524735D01*
Y32664D01*
X524549D01*
Y32478D01*
X524177D01*
Y32292D01*
X523991D01*
Y32106D01*
X523805D01*
Y31920D01*
X523433D01*
Y31734D01*
X523247D01*
Y31548D01*
X522875D01*
Y31362D01*
X522689D01*
Y31176D01*
X522317D01*
Y30990D01*
X522131D01*
Y30804D01*
X521759D01*
Y30618D01*
X521573D01*
Y30432D01*
X521201D01*
Y30246D01*
X520829D01*
Y30060D01*
X520457D01*
Y29874D01*
X520084D01*
Y29688D01*
X519712D01*
Y29502D01*
X519340D01*
Y29316D01*
X518968D01*
Y29130D01*
X518596D01*
Y28944D01*
X518038D01*
Y28758D01*
X517666D01*
Y28572D01*
X517108D01*
Y28386D01*
X516736D01*
Y28200D01*
X516178D01*
Y28014D01*
X515620D01*
Y27828D01*
X515062D01*
Y27642D01*
X514504D01*
Y27456D01*
X513760D01*
Y27270D01*
X512830D01*
Y27084D01*
X511900D01*
Y26898D01*
X510597D01*
Y26712D01*
X508737D01*
Y26526D01*
X505017D01*
Y26712D01*
X503157D01*
Y26898D01*
X501855D01*
Y27084D01*
X500925D01*
Y27270D01*
X500181D01*
Y27456D01*
X499436D01*
Y27642D01*
X498692D01*
Y27828D01*
X498134D01*
Y28014D01*
X497576D01*
Y28200D01*
X497018D01*
Y28386D01*
X496460D01*
Y28572D01*
X496088D01*
Y28758D01*
X495530D01*
Y28944D01*
X495158D01*
Y29130D01*
X494786D01*
Y29316D01*
X494414D01*
Y29502D01*
X493856D01*
Y29688D01*
X493484D01*
Y29874D01*
X493298D01*
Y30060D01*
X492926D01*
Y30246D01*
X492554D01*
Y30432D01*
X492182D01*
Y30618D01*
X491810D01*
Y30804D01*
X491624D01*
Y30990D01*
X491252D01*
Y31176D01*
X491066D01*
Y31362D01*
X490694D01*
Y31548D01*
X490508D01*
Y31734D01*
X490135D01*
Y31920D01*
X489949D01*
Y32106D01*
X489763D01*
Y32292D01*
X489392D01*
Y32478D01*
X489205D01*
Y32664D01*
X489019D01*
Y32850D01*
X488833D01*
Y33036D01*
X488647D01*
Y33222D01*
X488275D01*
Y33408D01*
X488089D01*
Y33594D01*
X487903D01*
Y33780D01*
X487717D01*
Y33966D01*
X487531D01*
Y34152D01*
X487159D01*
Y34338D01*
X486973D01*
Y34524D01*
X486787D01*
Y34710D01*
X486601D01*
Y34896D01*
X486415D01*
Y35082D01*
X486229D01*
Y35268D01*
X486043D01*
Y35454D01*
X485857D01*
Y35640D01*
X485671D01*
Y36012D01*
X485485D01*
Y36198D01*
X485299D01*
Y36384D01*
X485113D01*
Y36570D01*
X484927D01*
Y36756D01*
X484741D01*
Y37129D01*
X484555D01*
Y37315D01*
X484369D01*
Y37501D01*
X484183D01*
Y37687D01*
X483997D01*
Y38059D01*
X483811D01*
Y38245D01*
X483625D01*
Y38617D01*
X483439D01*
Y38803D01*
X483253D01*
Y38989D01*
X483067D01*
Y39361D01*
X482881D01*
Y39547D01*
X482695D01*
Y39919D01*
X482509D01*
Y40291D01*
X482323D01*
Y40477D01*
X482137D01*
Y40849D01*
X481951D01*
Y41221D01*
X481765D01*
Y41593D01*
X481579D01*
Y41965D01*
X481393D01*
Y42151D01*
X481207D01*
Y42709D01*
X481021D01*
Y43081D01*
X480835D01*
Y43453D01*
X480649D01*
Y43825D01*
X480463D01*
Y44197D01*
X480277D01*
Y44755D01*
X480091D01*
Y45127D01*
X479905D01*
Y45685D01*
X479719D01*
Y46244D01*
X479533D01*
Y46802D01*
X479347D01*
Y47360D01*
X479160D01*
Y47918D01*
X478974D01*
Y48662D01*
X478788D01*
Y49406D01*
X478602D01*
Y50336D01*
X478416D01*
Y51266D01*
X478230D01*
Y52568D01*
X478044D01*
Y54242D01*
X477858D01*
Y59637D01*
X478044D01*
Y61311D01*
X478230D01*
Y62427D01*
X478416D01*
Y63357D01*
X478602D01*
Y64287D01*
X478788D01*
Y65031D01*
X478974D01*
Y65775D01*
X479160D01*
Y66519D01*
X479347D01*
Y67077D01*
X479533D01*
Y67449D01*
X479719D01*
Y68008D01*
X479905D01*
Y68566D01*
X480091D01*
Y68938D01*
X480277D01*
Y69496D01*
X480463D01*
Y69868D01*
X480649D01*
Y70240D01*
X480835D01*
Y70612D01*
X481021D01*
Y71170D01*
X481207D01*
Y71542D01*
X481393D01*
Y71728D01*
X481579D01*
Y72100D01*
X481765D01*
Y72472D01*
X481951D01*
Y72844D01*
X482137D01*
Y73216D01*
X482323D01*
Y73402D01*
X482509D01*
Y73774D01*
X482695D01*
Y73960D01*
X482881D01*
Y74332D01*
X483067D01*
Y74518D01*
X483253D01*
Y74890D01*
X483439D01*
Y75076D01*
X483625D01*
Y75262D01*
X483811D01*
Y75634D01*
X483997D01*
Y75820D01*
X484183D01*
Y76006D01*
X484369D01*
Y76192D01*
X484555D01*
Y76564D01*
X484741D01*
Y76750D01*
X484927D01*
Y76936D01*
X485113D01*
Y77123D01*
X485299D01*
Y77309D01*
X485485D01*
Y77495D01*
X485671D01*
Y77867D01*
X485857D01*
Y78053D01*
X486043D01*
Y78239D01*
X486229D01*
Y78425D01*
X486415D01*
Y78611D01*
X486601D01*
Y78797D01*
X486787D01*
Y78983D01*
X486973D01*
Y79169D01*
X487159D01*
Y79355D01*
X487531D01*
Y79541D01*
X487717D01*
Y79727D01*
X487903D01*
Y79913D01*
X488089D01*
Y80099D01*
X488275D01*
Y80285D01*
X488461D01*
Y80471D01*
X488833D01*
Y80657D01*
X489019D01*
Y80843D01*
X489392D01*
Y81029D01*
X489577D01*
Y81215D01*
X489763D01*
Y81401D01*
X490135D01*
Y81215D01*
X489949D01*
Y81029D01*
X489763D01*
Y80843D01*
X489577D01*
Y80657D01*
X489205D01*
Y80471D01*
X489019D01*
Y80285D01*
X488833D01*
Y80099D01*
X488647D01*
Y79913D01*
X488461D01*
Y79727D01*
X488275D01*
Y79541D01*
X488089D01*
Y79355D01*
X487903D01*
Y79169D01*
X487531D01*
Y78983D01*
X487345D01*
Y78797D01*
X487159D01*
Y78611D01*
X486973D01*
Y78425D01*
X486787D01*
Y78239D01*
X486601D01*
Y78053D01*
X486415D01*
Y77681D01*
X486229D01*
Y77495D01*
X486043D01*
Y77309D01*
X485857D01*
Y77123D01*
X485671D01*
Y76936D01*
X485485D01*
Y76750D01*
X485299D01*
Y76564D01*
X485113D01*
Y76378D01*
X484927D01*
Y76006D01*
X484741D01*
Y75820D01*
X484555D01*
Y75634D01*
X484369D01*
Y75262D01*
X484183D01*
Y75076D01*
X483997D01*
Y74704D01*
X483811D01*
Y74518D01*
X483625D01*
Y74146D01*
X483439D01*
Y73960D01*
X483253D01*
Y73588D01*
X483067D01*
Y73402D01*
X482881D01*
Y73216D01*
X482695D01*
Y72844D01*
X482509D01*
Y72472D01*
X482323D01*
Y72286D01*
X482137D01*
Y71914D01*
X481951D01*
Y71542D01*
X481765D01*
Y71170D01*
X481579D01*
Y70798D01*
X481393D01*
Y70426D01*
X481207D01*
Y69868D01*
X481021D01*
Y69496D01*
X480835D01*
Y69124D01*
X480649D01*
Y68566D01*
X480463D01*
Y68194D01*
X480277D01*
Y67635D01*
X480091D01*
Y67077D01*
X479905D01*
Y66519D01*
X479719D01*
Y65961D01*
X479533D01*
Y65403D01*
X479347D01*
Y64659D01*
X479160D01*
Y63729D01*
X478974D01*
Y62799D01*
X478788D01*
Y61497D01*
X478602D01*
Y59823D01*
X478416D01*
Y55172D01*
X478602D01*
Y53312D01*
X478788D01*
Y52010D01*
X478974D01*
Y51080D01*
X479160D01*
Y50336D01*
X479347D01*
Y49592D01*
X479533D01*
Y49034D01*
X479719D01*
Y48476D01*
X479905D01*
Y47918D01*
X480091D01*
Y47360D01*
X480277D01*
Y46802D01*
X480463D01*
Y46244D01*
X480649D01*
Y45871D01*
X480835D01*
Y45313D01*
X481021D01*
Y44941D01*
X481207D01*
Y44569D01*
X481393D01*
Y44197D01*
X481579D01*
Y43825D01*
X481765D01*
Y43453D01*
X481951D01*
Y43081D01*
X482137D01*
Y42709D01*
X482323D01*
Y42337D01*
X482509D01*
Y42151D01*
X482695D01*
Y41779D01*
X482881D01*
Y41407D01*
X483067D01*
Y41221D01*
X483253D01*
Y40849D01*
X483439D01*
Y40477D01*
X483625D01*
Y40291D01*
X483811D01*
Y39919D01*
X483997D01*
Y39733D01*
X484183D01*
Y39361D01*
X484369D01*
Y39175D01*
X484555D01*
Y38803D01*
X484741D01*
Y38617D01*
X484927D01*
Y38431D01*
X485113D01*
Y38059D01*
X485299D01*
Y37873D01*
X485485D01*
Y37687D01*
X485671D01*
Y37501D01*
X485857D01*
Y37315D01*
X486043D01*
Y36943D01*
X486229D01*
Y36756D01*
X486415D01*
Y36570D01*
X486601D01*
Y36384D01*
X486787D01*
Y36198D01*
X486973D01*
Y36012D01*
X487159D01*
Y35826D01*
X487345D01*
Y35640D01*
X487531D01*
Y35454D01*
X487717D01*
Y35268D01*
X487903D01*
Y35082D01*
X488089D01*
Y34896D01*
X488275D01*
Y34710D01*
X488461D01*
Y34524D01*
X488833D01*
Y34338D01*
X489019D01*
Y34152D01*
X489205D01*
Y33966D01*
X489392D01*
Y33780D01*
X489577D01*
Y33594D01*
X489763D01*
Y33408D01*
X490135D01*
Y33222D01*
X490322D01*
Y33036D01*
X490508D01*
Y32850D01*
X490880D01*
Y32664D01*
X491066D01*
Y32478D01*
X491438D01*
Y32292D01*
X491624D01*
Y32106D01*
X491996D01*
Y31920D01*
X492182D01*
Y31734D01*
X492554D01*
Y31548D01*
X492740D01*
Y31362D01*
X493112D01*
Y31176D01*
X493484D01*
Y30990D01*
X493856D01*
Y30804D01*
X494228D01*
Y30618D01*
X494600D01*
Y30432D01*
X494972D01*
Y30246D01*
X495344D01*
Y30060D01*
X495902D01*
Y29874D01*
X496274D01*
Y29688D01*
X496832D01*
Y29502D01*
X497204D01*
Y29316D01*
X497762D01*
Y29130D01*
X498320D01*
Y28944D01*
X498878D01*
Y28758D01*
X499622D01*
Y28572D01*
X500367D01*
Y28386D01*
X501111D01*
Y28200D01*
X502227D01*
Y28014D01*
X503529D01*
Y27828D01*
X505575D01*
Y27642D01*
X507621D01*
Y27828D01*
X510597D01*
Y28014D01*
X511714D01*
Y28200D01*
X512644D01*
Y28386D01*
X513388D01*
Y28572D01*
X514132D01*
Y28758D01*
X514876D01*
Y28944D01*
X515434D01*
Y29130D01*
X515992D01*
Y29316D01*
X516550D01*
Y29502D01*
X516922D01*
Y29688D01*
X517480D01*
Y29874D01*
X517852D01*
Y30060D01*
X518224D01*
Y30246D01*
X518782D01*
Y30432D01*
X519154D01*
Y30618D01*
X519526D01*
Y30804D01*
X519898D01*
Y30990D01*
X520271D01*
Y31176D01*
X520457D01*
Y31362D01*
X520084D01*
Y31176D01*
X519712D01*
Y30990D01*
X519340D01*
Y30804D01*
X518782D01*
Y30618D01*
X518410D01*
Y30432D01*
X518038D01*
Y30246D01*
X517480D01*
Y30060D01*
X517108D01*
Y29874D01*
X516550D01*
Y29688D01*
X515992D01*
Y29502D01*
X515248D01*
Y29316D01*
X514504D01*
Y29130D01*
X513760D01*
Y28944D01*
X512830D01*
Y28758D01*
X511714D01*
Y28572D01*
X509481D01*
Y28386D01*
X505575D01*
Y28572D01*
X504087D01*
Y28758D01*
X502971D01*
Y28944D01*
X502041D01*
Y29130D01*
X501297D01*
Y29316D01*
X500552D01*
Y29502D01*
X499809D01*
Y29688D01*
X499250D01*
Y29874D01*
X498692D01*
Y30060D01*
X498134D01*
Y30246D01*
X497762D01*
Y30432D01*
X497204D01*
Y30618D01*
X496832D01*
Y30804D01*
X496274D01*
Y30990D01*
X495902D01*
Y31176D01*
X495530D01*
Y31362D01*
X495158D01*
Y31548D01*
X494786D01*
Y31734D01*
X494600D01*
Y31920D01*
X494228D01*
Y32106D01*
X493856D01*
Y32292D01*
X493484D01*
Y32478D01*
X493298D01*
Y32664D01*
X492926D01*
Y32850D01*
X492740D01*
Y33036D01*
X492368D01*
Y33222D01*
X492182D01*
Y33408D01*
X491810D01*
Y33594D01*
X491624D01*
Y33780D01*
X491438D01*
Y33966D01*
X491066D01*
Y34152D01*
X490880D01*
Y34338D01*
X490694D01*
Y34524D01*
X490508D01*
Y34710D01*
X490135D01*
Y34896D01*
X489949D01*
Y35082D01*
X489763D01*
Y35268D01*
X489577D01*
Y35454D01*
X489392D01*
Y35640D01*
X489205D01*
Y35826D01*
X489019D01*
Y36012D01*
X488833D01*
Y36198D01*
X488647D01*
Y36384D01*
X488461D01*
Y36570D01*
X488275D01*
Y36756D01*
X488089D01*
Y36943D01*
X487903D01*
Y37129D01*
X487717D01*
Y37315D01*
X487531D01*
Y37501D01*
X487345D01*
Y37687D01*
X487159D01*
Y37873D01*
X486973D01*
Y38245D01*
X486787D01*
Y38431D01*
X486601D01*
Y38617D01*
X486415D01*
Y38803D01*
X486229D01*
Y39175D01*
X486043D01*
Y39361D01*
X485857D01*
Y39733D01*
X485671D01*
Y39919D01*
X485485D01*
Y40105D01*
X485299D01*
Y40477D01*
X485113D01*
Y40663D01*
X484927D01*
Y41035D01*
X484741D01*
Y41407D01*
X484555D01*
Y41593D01*
X484369D01*
Y41965D01*
X484183D01*
Y42337D01*
X483997D01*
Y42523D01*
X483811D01*
Y42895D01*
X483625D01*
Y43267D01*
X483439D01*
Y43639D01*
X483253D01*
Y44011D01*
X483067D01*
Y44569D01*
X482881D01*
Y44941D01*
X482695D01*
Y45313D01*
X482509D01*
Y45871D01*
X482323D01*
Y46244D01*
X482137D01*
Y46802D01*
X481951D01*
Y47360D01*
X481765D01*
Y47918D01*
X481579D01*
Y48476D01*
X481393D01*
Y49220D01*
X481207D01*
Y49964D01*
X481021D01*
Y50708D01*
X480835D01*
Y51638D01*
X480649D01*
Y52940D01*
X480463D01*
Y54614D01*
X480277D01*
Y60009D01*
X480463D01*
Y61683D01*
X480649D01*
Y62799D01*
X480835D01*
Y63729D01*
X481021D01*
Y64473D01*
X481207D01*
Y65217D01*
X481393D01*
Y65961D01*
X481579D01*
Y66519D01*
X481765D01*
Y67077D01*
X481951D01*
Y67635D01*
X482137D01*
Y68194D01*
X482323D01*
Y68566D01*
X482509D01*
Y69124D01*
X482695D01*
Y69496D01*
X482881D01*
Y69868D01*
X483067D01*
Y70426D01*
X483253D01*
Y70798D01*
X483439D01*
Y71170D01*
X483625D01*
Y71356D01*
X483811D01*
Y71728D01*
X483997D01*
Y72100D01*
X484183D01*
Y72472D01*
X484369D01*
Y72658D01*
X484555D01*
Y73030D01*
X484741D01*
Y73402D01*
X484927D01*
Y73588D01*
X485113D01*
Y73960D01*
X485299D01*
Y74146D01*
X485485D01*
Y74332D01*
X485671D01*
Y74704D01*
X485857D01*
Y74890D01*
X486043D01*
Y75076D01*
X486229D01*
Y75448D01*
X486415D01*
Y75634D01*
X486601D01*
Y75820D01*
X486787D01*
Y76006D01*
X486973D01*
Y76378D01*
X487159D01*
Y76564D01*
X487345D01*
Y76750D01*
X487531D01*
Y76936D01*
X487717D01*
Y77123D01*
X487903D01*
Y77309D01*
X488089D01*
Y77495D01*
X488275D01*
Y77681D01*
X488461D01*
Y77867D01*
X488647D01*
Y78053D01*
X488833D01*
Y78239D01*
X489019D01*
Y78425D01*
X489205D01*
Y78611D01*
X489392D01*
Y78797D01*
X489577D01*
Y78983D01*
X489949D01*
Y79169D01*
X490135D01*
Y79355D01*
X490322D01*
Y79541D01*
X490508D01*
Y79727D01*
X490880D01*
Y79913D01*
X491066D01*
Y80099D01*
X491252D01*
Y80285D01*
X491438D01*
Y80471D01*
X491810D01*
Y80657D01*
X491996D01*
Y80843D01*
X492368D01*
Y81029D01*
X492554D01*
Y81215D01*
X492926D01*
Y81401D01*
X493112D01*
Y81587D01*
X492926D01*
Y82145D01*
X493112D01*
Y82517D01*
X493298D01*
Y83075D01*
X493484D01*
Y83633D01*
X493670D01*
Y83447D01*
X493856D01*
Y83261D01*
X494042D01*
Y83075D01*
X494228D01*
Y82889D01*
X494414D01*
Y82703D01*
X494600D01*
Y82517D01*
X495158D01*
Y82703D01*
X495530D01*
Y82889D01*
X496088D01*
Y83075D01*
X496460D01*
Y83261D01*
X496832D01*
Y83447D01*
X497390D01*
Y83633D01*
X497762D01*
Y83819D01*
X498320D01*
Y84005D01*
X498878D01*
Y84191D01*
X499436D01*
Y84377D01*
X500181D01*
Y84563D01*
X500925D01*
Y84749D01*
X501669D01*
Y84935D01*
X502785D01*
Y85121D01*
X504087D01*
Y85307D01*
X505761D01*
Y85493D01*
X507807D01*
Y85307D01*
D02*
G37*
G36*
X489205Y88284D02*
X489392D01*
Y88097D01*
X489577D01*
Y87725D01*
X489763D01*
Y87540D01*
X489949D01*
Y87353D01*
X490135D01*
Y87167D01*
X490322D01*
Y86981D01*
X490508D01*
Y86795D01*
X490694D01*
Y86609D01*
X490880D01*
Y86423D01*
X491066D01*
Y86237D01*
X491252D01*
Y86051D01*
X491438D01*
Y85865D01*
X491624D01*
Y85679D01*
X491810D01*
Y85493D01*
X491996D01*
Y85307D01*
X492182D01*
Y85121D01*
X492368D01*
Y84935D01*
X492554D01*
Y84749D01*
X492740D01*
Y84377D01*
X492926D01*
Y84191D01*
X493112D01*
Y83447D01*
X492926D01*
Y82889D01*
X492740D01*
Y82331D01*
X492554D01*
Y82517D01*
X492368D01*
Y82703D01*
X491996D01*
Y82889D01*
X492182D01*
Y83075D01*
X491996D01*
Y83447D01*
X491810D01*
Y83819D01*
X491624D01*
Y84005D01*
X491438D01*
Y84377D01*
X491252D01*
Y84749D01*
X491066D01*
Y85121D01*
X490880D01*
Y85307D01*
X490694D01*
Y85493D01*
Y85679D01*
X490508D01*
Y86051D01*
X490322D01*
Y86237D01*
X490135D01*
Y86609D01*
X489949D01*
Y86981D01*
X489763D01*
Y87353D01*
X489577D01*
Y87540D01*
X489392D01*
Y87912D01*
X489205D01*
Y88284D01*
X489019D01*
Y88469D01*
X489205D01*
Y88284D01*
D02*
G37*
G36*
X491996Y82517D02*
X491810D01*
Y82331D01*
X491438D01*
Y82517D01*
X491624D01*
Y82703D01*
X491996D01*
Y82517D01*
D02*
G37*
G36*
X522317Y82145D02*
X522131D01*
Y82331D01*
X522317D01*
Y82145D01*
D02*
G37*
G36*
X522131Y81959D02*
X521945D01*
Y82145D01*
X522131D01*
Y81959D01*
D02*
G37*
G36*
X491438Y82145D02*
X491252D01*
Y81959D01*
X490880D01*
Y82145D01*
X491066D01*
Y82331D01*
X491438D01*
Y82145D01*
D02*
G37*
G36*
X490880Y81773D02*
X490694D01*
Y81959D01*
X490880D01*
Y81773D01*
D02*
G37*
G36*
X490694Y81587D02*
X490508D01*
Y81401D01*
X490135D01*
Y81587D01*
X490322D01*
Y81773D01*
X490694D01*
Y81587D01*
D02*
G37*
G36*
X503529Y82889D02*
X503715D01*
Y82517D01*
X503901D01*
Y81959D01*
X504087D01*
Y81215D01*
X504273D01*
Y81029D01*
X504459D01*
Y80843D01*
X504645D01*
Y80471D01*
X504831D01*
Y80285D01*
X505017D01*
Y80099D01*
X505203D01*
Y79913D01*
X505389D01*
Y79541D01*
X505575D01*
Y79355D01*
X505761D01*
Y79169D01*
X505947D01*
Y78983D01*
X506133D01*
Y78797D01*
X505947D01*
Y78611D01*
X505761D01*
Y78425D01*
X505389D01*
Y78239D01*
X505017D01*
Y78053D01*
X504645D01*
Y78239D01*
X504459D01*
Y78425D01*
X504273D01*
Y78797D01*
X504087D01*
Y78983D01*
X503901D01*
Y79169D01*
X503715D01*
Y79541D01*
X503529D01*
Y79727D01*
X503343D01*
Y80099D01*
X503157D01*
Y80285D01*
X502971D01*
Y81029D01*
X503157D01*
Y82517D01*
X503343D01*
Y82889D01*
Y83075D01*
Y83261D01*
X503529D01*
Y82889D01*
D02*
G37*
G36*
X496088Y80843D02*
X496274D01*
Y80657D01*
X496460D01*
Y80471D01*
X496646D01*
Y80285D01*
X496832D01*
Y80099D01*
X497018D01*
Y79913D01*
X497204D01*
Y79727D01*
X497390D01*
Y78983D01*
X497204D01*
Y77495D01*
X497018D01*
Y76936D01*
X496832D01*
Y76378D01*
X496646D01*
Y75820D01*
X496460D01*
Y75634D01*
X496274D01*
Y76006D01*
X496088D01*
Y76378D01*
X495902D01*
Y76564D01*
X495716D01*
Y76936D01*
X495530D01*
Y77309D01*
X495344D01*
Y77681D01*
X495158D01*
Y77867D01*
X494972D01*
Y78425D01*
X495158D01*
Y78797D01*
X495344D01*
Y79169D01*
X495530D01*
Y79541D01*
X495716D01*
Y80099D01*
X495902D01*
Y80285D01*
Y81029D01*
X496088D01*
Y80843D01*
D02*
G37*
G36*
X498506Y78425D02*
X498692D01*
Y78239D01*
X498878D01*
Y77867D01*
X499064D01*
Y77681D01*
X499250D01*
Y77495D01*
X499436D01*
Y77309D01*
X499622D01*
Y77123D01*
X499809D01*
Y76192D01*
X499622D01*
Y75262D01*
X499436D01*
Y74704D01*
X499250D01*
Y74146D01*
X499064D01*
Y73960D01*
X498878D01*
Y73588D01*
X498692D01*
Y73216D01*
X498506D01*
Y72844D01*
X498320D01*
Y72472D01*
X498134D01*
Y72658D01*
X497948D01*
Y73030D01*
X497762D01*
Y73402D01*
X497576D01*
Y73774D01*
X497390D01*
Y73960D01*
X497204D01*
Y74332D01*
X497018D01*
Y74890D01*
X497204D01*
Y75262D01*
X497390D01*
Y75820D01*
X497576D01*
Y76192D01*
X497762D01*
Y76750D01*
X497948D01*
Y77495D01*
X498134D01*
Y78611D01*
X498506D01*
Y78425D01*
D02*
G37*
G36*
X500739Y65775D02*
X501669D01*
Y65589D01*
X502041D01*
Y65403D01*
X502413D01*
Y65217D01*
X502785D01*
Y65031D01*
X502971D01*
Y64845D01*
X503157D01*
Y64659D01*
X503529D01*
Y64473D01*
X503715D01*
Y64287D01*
X504087D01*
Y64101D01*
X504273D01*
Y63915D01*
X504645D01*
Y63729D01*
X504831D01*
Y63543D01*
X505203D01*
Y63357D01*
X505389D01*
Y63171D01*
X505575D01*
Y62985D01*
X505947D01*
Y62799D01*
X506133D01*
Y62613D01*
X506319D01*
Y62427D01*
X506691D01*
Y62241D01*
X506877D01*
Y62055D01*
X507063D01*
Y61869D01*
X507249D01*
Y61683D01*
X507435D01*
Y61497D01*
X507621D01*
Y61311D01*
X507807D01*
Y61125D01*
X507993D01*
Y60939D01*
X508179D01*
Y60753D01*
X508365D01*
Y60567D01*
X508551D01*
Y60381D01*
X508737D01*
Y60009D01*
X508923D01*
Y59637D01*
X509109D01*
Y59265D01*
X509295D01*
Y56474D01*
X509109D01*
Y55730D01*
X508923D01*
Y54986D01*
X508737D01*
Y54614D01*
X508551D01*
Y54056D01*
X508365D01*
Y53870D01*
X508179D01*
Y53684D01*
X507993D01*
Y53498D01*
X507621D01*
Y53312D01*
X507063D01*
Y53126D01*
X506505D01*
Y52940D01*
X506319D01*
Y52754D01*
X505947D01*
Y52940D01*
X506133D01*
Y53126D01*
X506319D01*
Y53498D01*
X506505D01*
Y53870D01*
X506691D01*
Y54428D01*
X506877D01*
Y54986D01*
X507063D01*
Y57963D01*
X506877D01*
Y58707D01*
X506691D01*
Y59451D01*
X506505D01*
Y60009D01*
X506319D01*
Y60381D01*
X506133D01*
Y60753D01*
X505947D01*
Y61125D01*
X505761D01*
Y61497D01*
X505575D01*
Y61683D01*
X505389D01*
Y61869D01*
X505203D01*
Y62241D01*
X505017D01*
Y62427D01*
X504831D01*
Y62613D01*
X504459D01*
Y62799D01*
X504273D01*
Y62985D01*
X503715D01*
Y63171D01*
X502599D01*
Y62985D01*
X502227D01*
Y62799D01*
X501855D01*
Y62613D01*
X501669D01*
Y62427D01*
X501297D01*
Y62241D01*
X501111D01*
Y62055D01*
X500739D01*
Y61869D01*
X500181D01*
Y62055D01*
X499622D01*
Y62241D01*
X499436D01*
Y62427D01*
X499064D01*
Y62613D01*
X498878D01*
Y62799D01*
X498692D01*
Y62985D01*
X498506D01*
Y63171D01*
X498320D01*
Y63357D01*
X498134D01*
Y63543D01*
X497948D01*
Y63729D01*
X497762D01*
Y63915D01*
X497576D01*
Y64287D01*
X497390D01*
Y64473D01*
X497204D01*
Y64659D01*
X497018D01*
Y65031D01*
X497204D01*
Y65403D01*
X497576D01*
Y65589D01*
X498134D01*
Y65775D01*
X499064D01*
Y65961D01*
X500739D01*
Y65775D01*
D02*
G37*
G36*
X496088Y62241D02*
X496274D01*
Y62055D01*
X496460D01*
Y61869D01*
X496646D01*
Y61683D01*
X496832D01*
Y61497D01*
X497204D01*
Y61311D01*
X497390D01*
Y61125D01*
X497762D01*
Y60939D01*
X497948D01*
Y60753D01*
X498320D01*
Y60567D01*
X498506D01*
Y60381D01*
X498878D01*
Y60195D01*
X499064D01*
Y60009D01*
X499436D01*
Y59823D01*
X499622D01*
Y59637D01*
X499995D01*
Y59451D01*
X500181D01*
Y59265D01*
X500367D01*
Y59079D01*
X500739D01*
Y58893D01*
X500925D01*
Y58707D01*
X501297D01*
Y58521D01*
X501483D01*
Y58335D01*
X501669D01*
Y58149D01*
X502041D01*
Y57963D01*
X502227D01*
Y57777D01*
X502413D01*
Y57591D01*
X502599D01*
Y57405D01*
X502785D01*
Y57218D01*
X502971D01*
Y57032D01*
X503343D01*
Y56846D01*
X503529D01*
Y56474D01*
X503715D01*
Y56288D01*
X503901D01*
Y56102D01*
X504087D01*
Y55916D01*
X504273D01*
Y55544D01*
X504459D01*
Y55358D01*
X504645D01*
Y54800D01*
X504831D01*
Y53126D01*
X504645D01*
Y52568D01*
X504459D01*
Y52010D01*
X504273D01*
Y51638D01*
X504087D01*
Y51452D01*
X503901D01*
Y51266D01*
X503715D01*
Y51080D01*
X503529D01*
Y50894D01*
X503157D01*
Y50708D01*
X502971D01*
Y50522D01*
X502785D01*
Y52940D01*
X502599D01*
Y53870D01*
X502413D01*
Y54428D01*
X502227D01*
Y54614D01*
X502041D01*
Y54986D01*
X501855D01*
Y55172D01*
X501669D01*
Y55358D01*
X501483D01*
Y55544D01*
X501297D01*
Y55730D01*
X501111D01*
Y55916D01*
X500925D01*
Y56102D01*
X500739D01*
Y56288D01*
X500552D01*
Y56474D01*
X500367D01*
Y56660D01*
X500181D01*
Y56846D01*
X499995D01*
Y57032D01*
X499809D01*
Y57218D01*
X499622D01*
Y57405D01*
X499250D01*
Y57591D01*
X499064D01*
Y57777D01*
X498878D01*
Y57963D01*
X498506D01*
Y58149D01*
X498320D01*
Y58335D01*
X497948D01*
Y58521D01*
X497762D01*
Y58707D01*
X497390D01*
Y58893D01*
X497018D01*
Y59079D01*
X496646D01*
Y59265D01*
X496274D01*
Y59451D01*
X495716D01*
Y59637D01*
X495344D01*
Y59823D01*
X494786D01*
Y60009D01*
X494600D01*
Y60195D01*
X494786D01*
Y60567D01*
X494972D01*
Y60753D01*
X495158D01*
Y61125D01*
X495344D01*
Y61497D01*
X495530D01*
Y61869D01*
X495716D01*
Y62427D01*
X496088D01*
Y62241D01*
D02*
G37*
G36*
X493856Y58707D02*
X494228D01*
Y58521D01*
X494600D01*
Y58335D01*
X494786D01*
Y58149D01*
X495158D01*
Y57963D01*
X495530D01*
Y57777D01*
X495902D01*
Y57591D01*
X496088D01*
Y57405D01*
X496460D01*
Y57218D01*
X496832D01*
Y57032D01*
X497018D01*
Y56846D01*
X497204D01*
Y56660D01*
X497576D01*
Y56474D01*
X497762D01*
Y56288D01*
X497948D01*
Y56102D01*
X498134D01*
Y55916D01*
X498320D01*
Y55730D01*
X498506D01*
Y55358D01*
X498692D01*
Y55172D01*
X498878D01*
Y54986D01*
X499064D01*
Y54614D01*
X499250D01*
Y54428D01*
X499436D01*
Y54056D01*
X499622D01*
Y53870D01*
X499809D01*
Y53498D01*
X499995D01*
Y53312D01*
X500181D01*
Y52940D01*
X500367D01*
Y52568D01*
X500552D01*
Y52382D01*
X500739D01*
Y52010D01*
X500925D01*
Y51638D01*
X501111D01*
Y51452D01*
X501297D01*
Y51080D01*
X501483D01*
Y50708D01*
X501669D01*
Y50336D01*
X501855D01*
Y49964D01*
X501669D01*
Y49778D01*
X501483D01*
Y49592D01*
X501111D01*
Y49406D01*
X500739D01*
Y49220D01*
X500367D01*
Y49592D01*
X500181D01*
Y49964D01*
X499995D01*
Y50522D01*
X499809D01*
Y50894D01*
X499622D01*
Y51452D01*
X499436D01*
Y52010D01*
X499250D01*
Y52382D01*
X499064D01*
Y52940D01*
X498878D01*
Y53498D01*
X498692D01*
Y53870D01*
X498506D01*
Y54242D01*
X498320D01*
Y54614D01*
X498134D01*
Y54800D01*
X497948D01*
Y55172D01*
X497762D01*
Y55358D01*
X497390D01*
Y55544D01*
X497204D01*
Y55730D01*
X497018D01*
Y55916D01*
X496646D01*
Y56102D01*
X496274D01*
Y56288D01*
X495902D01*
Y56474D01*
X495530D01*
Y56660D01*
X495158D01*
Y56846D01*
X494786D01*
Y57032D01*
X494414D01*
Y57218D01*
X494228D01*
Y56660D01*
X494414D01*
Y56288D01*
X494600D01*
Y56102D01*
X494786D01*
Y55916D01*
X494972D01*
Y55730D01*
X495158D01*
Y55544D01*
X495344D01*
Y55172D01*
X495530D01*
Y54986D01*
X495716D01*
Y54800D01*
X495902D01*
Y54614D01*
X496088D01*
Y54428D01*
X496274D01*
Y54056D01*
X496460D01*
Y53870D01*
X496646D01*
Y53684D01*
X496832D01*
Y53312D01*
X497018D01*
Y53126D01*
X497204D01*
Y52754D01*
X497390D01*
Y52382D01*
X497576D01*
Y51824D01*
X497762D01*
Y51452D01*
X497948D01*
Y50894D01*
X498134D01*
Y50522D01*
X498320D01*
Y50150D01*
X498506D01*
Y49592D01*
X498692D01*
Y49220D01*
X498878D01*
Y48662D01*
X499064D01*
Y48104D01*
X498692D01*
Y47918D01*
X498506D01*
Y47732D01*
X498320D01*
Y47174D01*
X498134D01*
Y46616D01*
X497948D01*
Y46244D01*
X497762D01*
Y46057D01*
X497576D01*
Y45871D01*
X497204D01*
Y46057D01*
X497018D01*
Y46430D01*
X496832D01*
Y46988D01*
X496646D01*
Y47546D01*
X496460D01*
Y48104D01*
X496274D01*
Y48476D01*
X496088D01*
Y48848D01*
X495902D01*
Y49220D01*
X495716D01*
Y49592D01*
X495530D01*
Y49964D01*
X495344D01*
Y50150D01*
X495158D01*
Y50522D01*
X494972D01*
Y50894D01*
X494786D01*
Y51080D01*
X494600D01*
Y51452D01*
X494414D01*
Y51824D01*
X494228D01*
Y52010D01*
X494042D01*
Y52382D01*
X493856D01*
Y52568D01*
X493670D01*
Y52940D01*
X493484D01*
Y53126D01*
X493298D01*
Y53498D01*
X493112D01*
Y53684D01*
X492926D01*
Y54056D01*
X492740D01*
Y54242D01*
X492554D01*
Y54428D01*
X492368D01*
Y54800D01*
X492182D01*
Y54986D01*
X491996D01*
Y55172D01*
X491810D01*
Y55358D01*
X491624D01*
Y55916D01*
X491810D01*
Y56288D01*
X491996D01*
Y56660D01*
X492182D01*
Y57032D01*
X492368D01*
Y57591D01*
X492554D01*
Y57963D01*
X492740D01*
Y58149D01*
X492926D01*
Y58521D01*
X493112D01*
Y58707D01*
X493298D01*
Y58893D01*
X493856D01*
Y58707D01*
D02*
G37*
G36*
X514690Y46057D02*
X514504D01*
Y46244D01*
X514690D01*
Y46057D01*
D02*
G37*
G36*
X491438Y54614D02*
X491624D01*
Y54428D01*
X491810D01*
Y54242D01*
X491996D01*
Y53870D01*
X492182D01*
Y53684D01*
X492368D01*
Y53312D01*
X492554D01*
Y53126D01*
X492740D01*
Y52754D01*
X492926D01*
Y52568D01*
X493112D01*
Y52196D01*
X493298D01*
Y51824D01*
X493484D01*
Y51452D01*
X493670D01*
Y50894D01*
X493856D01*
Y50150D01*
X494042D01*
Y49592D01*
X494228D01*
Y48848D01*
X494414D01*
Y48104D01*
X494600D01*
Y47732D01*
X494786D01*
Y47174D01*
X494972D01*
Y46802D01*
X495158D01*
Y46616D01*
X495344D01*
Y46244D01*
X495530D01*
Y45685D01*
X493856D01*
Y45871D01*
X491996D01*
Y46057D01*
X491810D01*
Y46244D01*
X491624D01*
Y46430D01*
X491438D01*
Y46616D01*
X491252D01*
Y46802D01*
X491066D01*
Y46988D01*
X490880D01*
Y47360D01*
X490694D01*
Y47918D01*
X490508D01*
Y48848D01*
X490322D01*
Y49220D01*
X490135D01*
Y49592D01*
X489949D01*
Y49778D01*
X489763D01*
Y50150D01*
X489577D01*
Y50336D01*
X489392D01*
Y50708D01*
X489205D01*
Y51080D01*
X489019D01*
Y51266D01*
X488833D01*
Y52196D01*
X489019D01*
Y52940D01*
X489205D01*
Y53312D01*
X489392D01*
Y53498D01*
X489577D01*
Y53684D01*
X489763D01*
Y53870D01*
X489949D01*
Y54056D01*
X490135D01*
Y54242D01*
X490322D01*
Y54428D01*
X490508D01*
Y54614D01*
X490694D01*
Y54800D01*
X490880D01*
Y54986D01*
X491438D01*
Y54614D01*
D02*
G37*
G36*
X516364Y43081D02*
X516178D01*
Y43267D01*
X516364D01*
Y43081D01*
D02*
G37*
G36*
X526409Y30804D02*
X526223D01*
Y30990D01*
X526409D01*
Y30804D01*
D02*
G37*
G36*
X526223Y30618D02*
X526037D01*
Y30804D01*
X526223D01*
Y30618D01*
D02*
G37*
G36*
X526037Y30432D02*
X525851D01*
Y30618D01*
X526037D01*
Y30432D01*
D02*
G37*
G36*
X486147Y246919D02*
X485320D01*
X484963Y248272D01*
Y248291D01*
X484944Y248328D01*
X484906Y248385D01*
X484850Y248441D01*
X484831Y248460D01*
X484812Y248479D01*
X484756Y248497D01*
X484700Y248516D01*
X482858D01*
Y241787D01*
Y241768D01*
X482876Y241712D01*
X482895Y241637D01*
X482933Y241580D01*
X482952Y241562D01*
X482989Y241543D01*
X483102Y241468D01*
X484136Y241110D01*
Y240584D01*
X479531D01*
Y241110D01*
X480546Y241468D01*
X480564D01*
X480602Y241505D01*
X480658Y241524D01*
X480715Y241580D01*
X480734Y241599D01*
X480752Y241637D01*
X480771Y241693D01*
X480790Y241787D01*
Y248516D01*
X478910D01*
X478835Y248479D01*
X478779Y248441D01*
Y248422D01*
X478741Y248403D01*
X478722Y248347D01*
X478704Y248272D01*
X478328Y246919D01*
X477519D01*
Y249550D01*
X486147D01*
Y246919D01*
D02*
G37*
G36*
X510168Y249719D02*
X510300D01*
X510601Y249681D01*
X510676D01*
X510770Y249663D01*
X510864D01*
X510995Y249644D01*
X511146Y249625D01*
X511465Y249569D01*
X511484D01*
X511540Y249550D01*
X511615D01*
X511728Y249531D01*
X511991Y249475D01*
X512292Y249418D01*
X512311D01*
X512367Y249400D01*
X512424D01*
X512518Y249381D01*
X512743Y249324D01*
X512950Y249268D01*
Y246824D01*
X512142D01*
X511785Y247990D01*
Y248009D01*
X511766Y248046D01*
X511728Y248103D01*
X511672Y248159D01*
X511653Y248178D01*
X511615Y248197D01*
X511503Y248272D01*
X511484D01*
X511446Y248309D01*
X511371Y248347D01*
X511296Y248385D01*
X511070Y248479D01*
X510807Y248573D01*
X510788D01*
X510751Y248591D01*
X510676Y248610D01*
X510582Y248648D01*
X510469Y248666D01*
X510337Y248685D01*
X510037Y248704D01*
X509943D01*
X509830Y248685D01*
X509679D01*
X509510Y248648D01*
X509341Y248610D01*
X509153Y248554D01*
X508965Y248479D01*
X508946D01*
X508890Y248441D01*
X508796Y248385D01*
X508683Y248328D01*
X508552Y248234D01*
X508420Y248121D01*
X508270Y247990D01*
X508138Y247840D01*
X508119Y247821D01*
X508082Y247764D01*
X508025Y247670D01*
X507950Y247558D01*
X507856Y247407D01*
X507781Y247219D01*
X507687Y247013D01*
X507612Y246787D01*
Y246768D01*
X507574Y246674D01*
X507556Y246543D01*
X507518Y246373D01*
X507480Y246148D01*
X507462Y245903D01*
X507424Y245622D01*
Y245321D01*
Y245302D01*
Y245283D01*
Y245170D01*
X507443Y245001D01*
Y244795D01*
X507480Y244550D01*
X507518Y244287D01*
X507556Y244024D01*
X507631Y243761D01*
X507649Y243723D01*
X507668Y243648D01*
X507725Y243516D01*
X507781Y243366D01*
X507856Y243178D01*
X507969Y242990D01*
X508082Y242802D01*
X508213Y242614D01*
X508232Y242595D01*
X508288Y242539D01*
X508364Y242464D01*
X508476Y242370D01*
X508608Y242257D01*
X508777Y242144D01*
X508965Y242031D01*
X509153Y241938D01*
X509172D01*
X509247Y241900D01*
X509360Y241862D01*
X509529Y241825D01*
X509717Y241787D01*
X509924Y241750D01*
X510168Y241731D01*
X510412Y241712D01*
X510563D01*
X510657Y241731D01*
X510920Y241750D01*
X511183Y241787D01*
X511202D01*
X511240Y241806D01*
X511315Y241825D01*
X511390Y241844D01*
X511597Y241919D01*
X511822Y242013D01*
X511841D01*
X511879Y242031D01*
X511991Y242107D01*
X512160Y242201D01*
X512330Y242313D01*
X512349D01*
X512367Y242351D01*
X512461Y242407D01*
X512593Y242520D01*
X512724Y242614D01*
X513176D01*
Y241750D01*
X513157Y241731D01*
X513119Y241712D01*
X513063Y241674D01*
X512988Y241599D01*
X512781Y241449D01*
X512518Y241280D01*
X512499Y241261D01*
X512461Y241242D01*
X512386Y241186D01*
X512292Y241129D01*
X512160Y241054D01*
X512029Y240979D01*
X511709Y240829D01*
X511691D01*
X511634Y240791D01*
X511540Y240772D01*
X511427Y240716D01*
X511296Y240678D01*
X511146Y240622D01*
X510788Y240528D01*
X510770D01*
X510713Y240509D01*
X510601Y240490D01*
X510488Y240471D01*
X510318Y240434D01*
X510149Y240415D01*
X509773Y240396D01*
X509604D01*
X509398Y240415D01*
X509153Y240434D01*
X508852Y240471D01*
X508552Y240528D01*
X508213Y240603D01*
X507894Y240716D01*
X507856Y240735D01*
X507762Y240772D01*
X507593Y240847D01*
X507405Y240941D01*
X507180Y241073D01*
X506935Y241223D01*
X506691Y241411D01*
X506465Y241618D01*
X506446Y241637D01*
X506371Y241731D01*
X506259Y241862D01*
X506127Y242031D01*
X505977Y242238D01*
X505807Y242483D01*
X505657Y242765D01*
X505526Y243084D01*
Y243103D01*
X505507Y243122D01*
X505469Y243235D01*
X505432Y243422D01*
X505375Y243648D01*
X505300Y243949D01*
X505262Y244268D01*
X505225Y244644D01*
X505206Y245039D01*
Y245077D01*
Y245152D01*
Y245302D01*
X505225Y245471D01*
X505244Y245678D01*
X505262Y245903D01*
X505356Y246373D01*
Y246411D01*
X505394Y246486D01*
X505413Y246599D01*
X505469Y246749D01*
X505526Y246919D01*
X505601Y247125D01*
X505789Y247520D01*
X505807Y247539D01*
X505845Y247614D01*
X505901Y247708D01*
X505995Y247840D01*
X506089Y247971D01*
X506221Y248140D01*
X506503Y248441D01*
X506522Y248460D01*
X506578Y248516D01*
X506653Y248591D01*
X506766Y248685D01*
X506916Y248798D01*
X507067Y248911D01*
X507424Y249136D01*
X507443Y249155D01*
X507518Y249193D01*
X507631Y249249D01*
X507762Y249306D01*
X507931Y249381D01*
X508119Y249456D01*
X508533Y249587D01*
X508552D01*
X508646Y249606D01*
X508758Y249644D01*
X508928Y249663D01*
X509116Y249700D01*
X509322Y249719D01*
X509567Y249738D01*
X510037D01*
X510168Y249719D01*
D02*
G37*
G36*
X526126Y247332D02*
X526276Y247313D01*
X526446Y247238D01*
X526464D01*
X526483Y247219D01*
X526577Y247163D01*
X526709Y247088D01*
X526840Y246975D01*
X526878Y246956D01*
X526934Y246881D01*
X527028Y246749D01*
X527103Y246599D01*
Y246580D01*
X527122Y246561D01*
X527160Y246449D01*
X527178Y246298D01*
X527197Y246129D01*
Y246110D01*
Y246091D01*
X527178Y245979D01*
X527160Y245809D01*
X527103Y245640D01*
Y245622D01*
X527085Y245603D01*
X527028Y245509D01*
X526953Y245377D01*
X526840Y245246D01*
X526803Y245227D01*
X526727Y245152D01*
X526596Y245077D01*
X526446Y245001D01*
X526427D01*
X526408Y244982D01*
X526295Y244964D01*
X526145Y244945D01*
X525957Y244926D01*
X525919D01*
X525806Y244945D01*
X525656Y244964D01*
X525487Y245001D01*
X525468D01*
X525449Y245020D01*
X525355Y245077D01*
X525224Y245152D01*
X525092Y245246D01*
X525073Y245283D01*
X524998Y245358D01*
X524904Y245490D01*
X524829Y245640D01*
Y245659D01*
X524810Y245678D01*
X524791Y245791D01*
X524754Y245941D01*
X524735Y246129D01*
Y246148D01*
Y246167D01*
X524754Y246279D01*
X524773Y246430D01*
X524829Y246599D01*
Y246618D01*
X524848Y246637D01*
X524904Y246730D01*
X524979Y246862D01*
X525092Y246994D01*
X525130Y247031D01*
X525205Y247088D01*
X525336Y247182D01*
X525487Y247257D01*
X525506D01*
X525524Y247276D01*
X525637Y247313D01*
X525788Y247332D01*
X525957Y247351D01*
X525994D01*
X526126Y247332D01*
D02*
G37*
G36*
X491898Y245020D02*
X494887D01*
Y243742D01*
X491898D01*
Y240753D01*
X490583D01*
Y243742D01*
X487594D01*
Y245020D01*
X490583D01*
Y248027D01*
X491898D01*
Y245020D01*
D02*
G37*
G36*
X501090Y249005D02*
X500131Y248629D01*
X500112D01*
X500075Y248610D01*
X499943Y248516D01*
X499924Y248497D01*
X499906Y248479D01*
X499887Y248422D01*
X499868Y248328D01*
Y241637D01*
X502875D01*
X502932Y241656D01*
X502951D01*
X502969Y241674D01*
X503026Y241693D01*
X503045Y241712D01*
X503082Y241768D01*
Y241787D01*
X503101Y241806D01*
X503120Y241900D01*
X503514Y243742D01*
X504360D01*
Y240584D01*
X496616D01*
Y241129D01*
X497575Y241486D01*
X497594D01*
X497631Y241505D01*
X497725Y241580D01*
X497744Y241599D01*
X497763Y241637D01*
X497782Y241712D01*
X497800Y241806D01*
Y248328D01*
Y248347D01*
Y248403D01*
X497763Y248460D01*
X497725Y248516D01*
X497706Y248535D01*
X497688Y248554D01*
X497575Y248629D01*
X496616Y249005D01*
Y249550D01*
X501090D01*
Y249005D01*
D02*
G37*
G36*
X526126Y242840D02*
X526276Y242821D01*
X526446Y242765D01*
X526464D01*
X526483Y242746D01*
X526577Y242689D01*
X526709Y242614D01*
X526821Y242501D01*
X526859Y242464D01*
X526915Y242389D01*
X527009Y242257D01*
X527085Y242107D01*
Y242088D01*
X527103Y242069D01*
X527141Y241956D01*
X527178Y241806D01*
X527197Y241637D01*
Y241618D01*
Y241599D01*
X527178Y241486D01*
X527160Y241336D01*
X527103Y241167D01*
Y241148D01*
X527085Y241129D01*
X527028Y241035D01*
X526953Y240904D01*
X526840Y240772D01*
X526803Y240753D01*
X526727Y240678D01*
X526596Y240603D01*
X526446Y240528D01*
X526427D01*
X526408Y240509D01*
X526295Y240490D01*
X526145Y240453D01*
X525957Y240434D01*
X525919D01*
X525806Y240453D01*
X525656Y240471D01*
X525487Y240528D01*
X525468D01*
X525449Y240547D01*
X525355Y240603D01*
X525224Y240678D01*
X525092Y240772D01*
X525073Y240810D01*
X524998Y240885D01*
X524904Y240998D01*
X524829Y241148D01*
Y241167D01*
X524810Y241186D01*
X524791Y241299D01*
X524754Y241449D01*
X524735Y241637D01*
Y241656D01*
Y241674D01*
X524754Y241787D01*
X524773Y241938D01*
X524829Y242107D01*
Y242125D01*
X524848Y242144D01*
X524904Y242238D01*
X524979Y242370D01*
X525092Y242501D01*
X525130Y242539D01*
X525205Y242595D01*
X525336Y242689D01*
X525487Y242765D01*
X525506D01*
X525524Y242783D01*
X525637Y242821D01*
X525788Y242840D01*
X525957Y242859D01*
X525994D01*
X526126Y242840D01*
D02*
G37*
G36*
X472388Y249738D02*
X472501D01*
X472783Y249719D01*
X473102Y249663D01*
X473441Y249606D01*
X473779Y249512D01*
X474117Y249400D01*
X474136D01*
X474155Y249381D01*
X474268Y249343D01*
X474418Y249249D01*
X474625Y249136D01*
X474851Y249005D01*
X475095Y248836D01*
X475320Y248629D01*
X475546Y248403D01*
X475565Y248385D01*
X475640Y248291D01*
X475734Y248159D01*
X475865Y247990D01*
X475997Y247764D01*
X476129Y247520D01*
X476260Y247238D01*
X476373Y246919D01*
X476392Y246881D01*
X476410Y246768D01*
X476467Y246599D01*
X476523Y246373D01*
X476561Y246091D01*
X476617Y245791D01*
X476636Y245434D01*
X476655Y245077D01*
Y245058D01*
Y244982D01*
Y244851D01*
X476636Y244701D01*
X476617Y244531D01*
X476599Y244325D01*
X476523Y243892D01*
Y243874D01*
X476505Y243798D01*
X476467Y243686D01*
X476429Y243554D01*
X476392Y243385D01*
X476316Y243197D01*
X476166Y242802D01*
X476147Y242783D01*
X476129Y242708D01*
X476072Y242614D01*
X476016Y242483D01*
X475922Y242332D01*
X475809Y242163D01*
X475565Y241825D01*
X475546Y241806D01*
X475508Y241750D01*
X475433Y241674D01*
X475320Y241562D01*
X475189Y241449D01*
X475057Y241317D01*
X474888Y241186D01*
X474700Y241054D01*
X474681Y241035D01*
X474606Y240998D01*
X474512Y240941D01*
X474362Y240866D01*
X474193Y240791D01*
X473986Y240716D01*
X473779Y240641D01*
X473535Y240565D01*
X473497D01*
X473422Y240528D01*
X473290Y240509D01*
X473102Y240471D01*
X472896Y240434D01*
X472651Y240415D01*
X472369Y240378D01*
X471899D01*
X471693Y240396D01*
X471430Y240415D01*
X471129Y240453D01*
X470790Y240509D01*
X470452Y240584D01*
X470133Y240697D01*
X470095Y240716D01*
X470001Y240753D01*
X469832Y240829D01*
X469644Y240941D01*
X469418Y241073D01*
X469174Y241223D01*
X468930Y241411D01*
X468704Y241637D01*
X468685Y241674D01*
X468610Y241750D01*
X468497Y241881D01*
X468385Y242050D01*
X468234Y242276D01*
X468084Y242520D01*
X467952Y242802D01*
X467821Y243122D01*
Y243141D01*
X467802Y243159D01*
X467783Y243272D01*
X467727Y243460D01*
X467670Y243686D01*
X467614Y243986D01*
X467576Y244306D01*
X467539Y244682D01*
X467520Y245077D01*
Y245095D01*
Y245114D01*
Y245170D01*
Y245246D01*
X467539Y245434D01*
X467558Y245697D01*
X467595Y245979D01*
X467652Y246298D01*
X467727Y246618D01*
X467821Y246937D01*
Y246956D01*
X467840Y246975D01*
X467877Y247088D01*
X467952Y247238D01*
X468046Y247445D01*
X468178Y247689D01*
X468328Y247934D01*
X468516Y248178D01*
X468723Y248422D01*
X468742Y248460D01*
X468836Y248535D01*
X468967Y248648D01*
X469137Y248779D01*
X469343Y248948D01*
X469588Y249099D01*
X469869Y249268D01*
X470170Y249400D01*
X470189D01*
X470208Y249418D01*
X470321Y249456D01*
X470490Y249512D01*
X470734Y249587D01*
X471016Y249644D01*
X471336Y249700D01*
X471693Y249738D01*
X472087Y249757D01*
X472294D01*
X472388Y249738D01*
D02*
G37*
G36*
X518833Y249005D02*
X517893Y248629D01*
X517874D01*
X517837Y248610D01*
X517705Y248516D01*
Y248497D01*
X517687Y248479D01*
X517668Y248422D01*
X517649Y248328D01*
Y241787D01*
Y241768D01*
Y241750D01*
Y241637D01*
X517630Y241468D01*
X517611Y241242D01*
X517574Y240979D01*
X517536Y240716D01*
X517461Y240434D01*
X517367Y240152D01*
X517348Y240114D01*
X517311Y240039D01*
X517254Y239889D01*
X517160Y239720D01*
X517048Y239532D01*
X516916Y239306D01*
X516766Y239099D01*
X516596Y238893D01*
X516578Y238874D01*
X516502Y238799D01*
X516408Y238705D01*
X516277Y238592D01*
X516108Y238460D01*
X515901Y238329D01*
X515694Y238197D01*
X515450Y238084D01*
X515412Y238066D01*
X515337Y238047D01*
X515205Y237990D01*
X515036Y237953D01*
X514830Y237896D01*
X514585Y237840D01*
X514341Y237821D01*
X514059Y237802D01*
X513965D01*
X513852Y237821D01*
X513721Y237840D01*
X513683D01*
X513608Y237859D01*
X513495Y237878D01*
X513345Y237896D01*
X513307D01*
X513213Y237915D01*
X513063Y237934D01*
X512912Y237953D01*
X512875D01*
X512800Y237972D01*
X512668Y238009D01*
X512555Y238028D01*
X512630Y239776D01*
X513063D01*
X513100Y239757D01*
X513176Y239720D01*
X513307Y239682D01*
X513476Y239607D01*
X513495D01*
X513514Y239588D01*
X513627Y239532D01*
X513796Y239475D01*
X513984Y239400D01*
X514002D01*
X514040Y239381D01*
X514078Y239363D01*
X514153Y239344D01*
X514322Y239306D01*
X514510Y239250D01*
X514529D01*
X514548Y239231D01*
X514660Y239212D01*
X514811Y239193D01*
X514942Y239174D01*
X515036D01*
X515130Y239193D01*
X515205Y239231D01*
X515224Y239250D01*
X515262Y239268D01*
X515318Y239344D01*
X515375Y239419D01*
X515393Y239438D01*
X515412Y239494D01*
X515431Y239569D01*
X515450Y239720D01*
Y239738D01*
Y239757D01*
X515469Y239870D01*
X515487Y240020D01*
X515506Y240246D01*
Y240265D01*
Y240302D01*
X515525Y240378D01*
Y240453D01*
X515544Y240678D01*
Y240960D01*
Y240979D01*
Y241035D01*
Y241110D01*
X515563Y241223D01*
Y241374D01*
Y241524D01*
Y241881D01*
Y248328D01*
Y248347D01*
Y248403D01*
X515525Y248460D01*
X515487Y248516D01*
X515469Y248535D01*
X515450Y248554D01*
X515337Y248629D01*
X514209Y249005D01*
Y249550D01*
X518833D01*
Y249005D01*
D02*
G37*
G36*
X529566Y250189D02*
X529641D01*
X529848Y250151D01*
X530111Y250095D01*
X530393Y250001D01*
X530712Y249907D01*
X531050Y249776D01*
X531370Y249625D01*
X531389D01*
X531408Y249606D01*
X531520Y249550D01*
X531671Y249437D01*
X531859Y249306D01*
X532084Y249136D01*
X532329Y248930D01*
X532573Y248685D01*
X532799Y248422D01*
X532817Y248385D01*
X532892Y248291D01*
X533005Y248121D01*
X533137Y247915D01*
X533287Y247652D01*
X533438Y247351D01*
X533588Y246994D01*
X533719Y246618D01*
Y246599D01*
X533738Y246561D01*
X533757Y246505D01*
X533776Y246430D01*
X533795Y246336D01*
X533832Y246223D01*
X533889Y245922D01*
X533945Y245584D01*
X534002Y245170D01*
X534039Y244738D01*
X534058Y244249D01*
Y244231D01*
Y244193D01*
Y244118D01*
Y244024D01*
X534039Y243911D01*
Y243780D01*
X534020Y243460D01*
X533983Y243084D01*
X533908Y242689D01*
X533832Y242276D01*
X533719Y241862D01*
Y241844D01*
X533701Y241825D01*
X533682Y241768D01*
X533663Y241693D01*
X533588Y241505D01*
X533475Y241261D01*
X533344Y240979D01*
X533174Y240678D01*
X532986Y240378D01*
X532780Y240096D01*
X532761Y240058D01*
X532667Y239983D01*
X532554Y239832D01*
X532366Y239682D01*
X532160Y239494D01*
X531915Y239287D01*
X531633Y239099D01*
X531332Y238930D01*
X531295Y238911D01*
X531182Y238855D01*
X531013Y238780D01*
X530787Y238705D01*
X530524Y238611D01*
X530205Y238517D01*
X529848Y238442D01*
X529472Y238385D01*
Y239268D01*
X529509D01*
X529584Y239287D01*
X529716Y239325D01*
X529885Y239381D01*
X530054Y239457D01*
X530261Y239532D01*
X530449Y239644D01*
X530637Y239776D01*
X530656Y239795D01*
X530712Y239851D01*
X530806Y239926D01*
X530919Y240039D01*
X531050Y240189D01*
X531182Y240359D01*
X531314Y240547D01*
X531426Y240772D01*
X531445Y240810D01*
X531483Y240885D01*
X531539Y241017D01*
X531614Y241204D01*
X531690Y241430D01*
X531765Y241674D01*
X531840Y241956D01*
X531896Y242276D01*
Y242295D01*
Y242313D01*
X531915Y242426D01*
X531953Y242614D01*
X531972Y242840D01*
X532009Y243141D01*
X532028Y243460D01*
X532047Y243836D01*
Y244231D01*
Y244249D01*
Y244287D01*
Y244343D01*
Y244419D01*
Y244625D01*
X532028Y244870D01*
X532009Y245170D01*
X531990Y245509D01*
X531896Y246185D01*
Y246204D01*
Y246223D01*
X531878Y246336D01*
X531840Y246505D01*
X531783Y246712D01*
X531727Y246937D01*
X531652Y247200D01*
X531558Y247464D01*
X531445Y247708D01*
X531426Y247745D01*
X531389Y247821D01*
X531332Y247934D01*
X531239Y248084D01*
X531126Y248253D01*
X530994Y248422D01*
X530825Y248610D01*
X530656Y248761D01*
X530637Y248779D01*
X530581Y248836D01*
X530468Y248892D01*
X530336Y248986D01*
X530167Y249080D01*
X529960Y249174D01*
X529735Y249249D01*
X529472Y249306D01*
Y250208D01*
X529528D01*
X529566Y250189D01*
D02*
G37*
%LPC*%
G36*
X516736Y59079D02*
X516550D01*
Y58893D01*
X516736D01*
Y59079D01*
D02*
G37*
G36*
X522317Y46616D02*
X522131D01*
Y46430D01*
X521945D01*
Y46057D01*
X522131D01*
Y46244D01*
X522317D01*
Y46616D01*
D02*
G37*
G36*
X521945Y46057D02*
X521759D01*
Y45871D01*
X521945D01*
Y46057D01*
D02*
G37*
G36*
X521759Y45871D02*
X521573D01*
Y45685D01*
X521759D01*
Y45871D01*
D02*
G37*
G36*
X521573Y45685D02*
X521387D01*
Y45313D01*
X521573D01*
Y45685D01*
D02*
G37*
G36*
X521387Y45313D02*
X521201D01*
Y45127D01*
X521387D01*
Y45313D01*
D02*
G37*
G36*
X521201Y45127D02*
X521015D01*
Y44941D01*
X521201D01*
Y45127D01*
D02*
G37*
G36*
X523061Y33036D02*
X522875D01*
Y32850D01*
X523061D01*
Y33036D01*
D02*
G37*
G36*
X522875Y32850D02*
X522503D01*
Y32664D01*
X522875D01*
Y32850D01*
D02*
G37*
G36*
X522503Y32664D02*
X522317D01*
Y32478D01*
X522503D01*
Y32664D01*
D02*
G37*
G36*
X522317Y32478D02*
X521945D01*
Y32292D01*
X521759D01*
Y32106D01*
X522131D01*
Y32292D01*
X522317D01*
Y32478D01*
D02*
G37*
G36*
X521759Y32106D02*
X521387D01*
Y31920D01*
X521759D01*
Y32106D01*
D02*
G37*
G36*
X521387Y31920D02*
X521015D01*
Y31734D01*
X520829D01*
Y31548D01*
X521201D01*
Y31734D01*
X521387D01*
Y31920D01*
D02*
G37*
G36*
X520829Y31548D02*
X520457D01*
Y31362D01*
X520829D01*
Y31548D01*
D02*
G37*
G36*
X471975Y248742D02*
X471881D01*
X471768Y248723D01*
X471636Y248704D01*
X471467Y248666D01*
X471298Y248629D01*
X471129Y248554D01*
X470960Y248460D01*
X470941Y248441D01*
X470885Y248403D01*
X470809Y248347D01*
X470715Y248253D01*
X470603Y248159D01*
X470490Y248027D01*
X470377Y247877D01*
X470264Y247708D01*
X470245Y247689D01*
X470227Y247633D01*
X470170Y247539D01*
X470114Y247407D01*
X470057Y247238D01*
X469982Y247050D01*
X469926Y246843D01*
X469869Y246618D01*
Y246599D01*
X469851Y246505D01*
X469832Y246392D01*
X469813Y246223D01*
X469794Y246016D01*
X469776Y245791D01*
X469757Y245546D01*
Y245283D01*
Y245264D01*
Y245246D01*
Y245133D01*
Y244964D01*
X469776Y244757D01*
X469794Y244494D01*
X469813Y244231D01*
X469888Y243667D01*
Y243629D01*
X469926Y243554D01*
X469945Y243422D01*
X470001Y243253D01*
X470057Y243046D01*
X470133Y242859D01*
X470227Y242652D01*
X470321Y242445D01*
X470339Y242426D01*
X470377Y242370D01*
X470433Y242276D01*
X470527Y242163D01*
X470640Y242031D01*
X470772Y241900D01*
X470903Y241768D01*
X471073Y241656D01*
X471091Y241637D01*
X471148Y241618D01*
X471260Y241580D01*
X471392Y241524D01*
X471542Y241468D01*
X471730Y241430D01*
X471956Y241411D01*
X472181Y241392D01*
X472275D01*
X472388Y241411D01*
X472520Y241430D01*
X472670Y241449D01*
X472839Y241505D01*
X472990Y241562D01*
X473159Y241637D01*
X473178Y241656D01*
X473234Y241693D01*
X473309Y241750D01*
X473403Y241825D01*
X473516Y241919D01*
X473629Y242050D01*
X473741Y242201D01*
X473854Y242351D01*
X473873Y242370D01*
X473892Y242426D01*
X473948Y242539D01*
X474005Y242671D01*
X474080Y242821D01*
X474155Y243009D01*
X474211Y243235D01*
X474268Y243460D01*
Y243498D01*
X474287Y243573D01*
X474324Y243704D01*
X474343Y243874D01*
X474381Y244080D01*
X474399Y244325D01*
X474418Y244588D01*
Y244870D01*
Y244888D01*
Y244907D01*
Y245020D01*
Y245189D01*
X474399Y245415D01*
X474381Y245659D01*
X474362Y245941D01*
X474268Y246486D01*
Y246524D01*
X474249Y246599D01*
X474211Y246730D01*
X474174Y246900D01*
X474099Y247088D01*
X474023Y247294D01*
X473948Y247501D01*
X473835Y247689D01*
X473817Y247708D01*
X473779Y247764D01*
X473723Y247858D01*
X473629Y247971D01*
X473516Y248103D01*
X473384Y248234D01*
X473234Y248347D01*
X473065Y248460D01*
X473046Y248479D01*
X472990Y248497D01*
X472896Y248554D01*
X472764Y248610D01*
X472595Y248648D01*
X472407Y248704D01*
X472200Y248723D01*
X471975Y248742D01*
D02*
G37*
%LPD*%
D10*
X306879Y90992D02*
G03*
X306879Y90992I-790J0D01*
G01*
D11*
X412041Y192235D02*
G03*
X412041Y192235I-63500J0D01*
G01*
D12*
X315849Y108412D02*
Y118593D01*
X341249Y118593D02*
X341249Y108412D01*
X315849Y118593D02*
X341249Y118593D01*
X315849Y108412D02*
X341249D01*
X241413Y231648D02*
Y241808D01*
X266813Y241808D02*
X266813Y231648D01*
X241413Y241808D02*
X266813Y241808D01*
X241413Y231648D02*
X266813D01*
X235196Y127162D02*
Y137322D01*
X260596Y137322D02*
X260596Y127162D01*
X235196Y137322D02*
X260596Y137322D01*
X235196Y127162D02*
X260596D01*
X240576Y71590D02*
X250756D01*
X240576Y96990D02*
X250756Y96990D01*
X240576Y96990D02*
X240576Y71590D01*
X250756D02*
Y96990D01*
X218737Y113412D02*
X244137D01*
X218737Y123593D02*
X244137Y123593D01*
X244137Y113412D01*
X218737D02*
Y123593D01*
X334419Y55181D02*
Y80582D01*
X324259Y80582D02*
X324259Y55181D01*
X324259Y80582D02*
X334419Y80582D01*
X324259Y55181D02*
X334419D01*
X337700Y70422D02*
X347860D01*
X337700Y95822D02*
X347860Y95822D01*
X337700Y95822D02*
X337700Y70422D01*
X347860D02*
Y95822D01*
X295208Y80582D02*
X305389D01*
X295208Y55181D02*
X305389Y55181D01*
X305389Y80582D02*
X305389Y55181D01*
X295208Y55181D02*
Y80582D01*
X187960Y113412D02*
Y123572D01*
X213360Y123572D02*
X213360Y113412D01*
X187960Y123572D02*
X213360Y123572D01*
X187960Y113412D02*
X213360D01*
X152954Y235341D02*
X185809D01*
X152954Y222766D02*
X185809D01*
Y235341D01*
X152954Y222766D02*
Y235341D01*
X235196Y151341D02*
X260596D01*
X235196Y141181D02*
X260596Y141181D01*
X235196Y151341D02*
X235196Y141181D01*
X260596Y141181D02*
Y151341D01*
X153184Y165920D02*
Y178496D01*
X186038Y165920D02*
Y178496D01*
X153184Y165920D02*
X186038D01*
X153184Y178496D02*
X186038D01*
X153347Y203413D02*
Y215989D01*
X186202Y203413D02*
Y215989D01*
X153347Y203413D02*
X186202D01*
X153347Y215989D02*
X186202D01*
X153350Y185118D02*
Y197693D01*
X186205Y185118D02*
Y197693D01*
X153350Y185118D02*
X186205D01*
X153350Y197693D02*
X186205D01*
D13*
X46000Y250679D02*
X101000D01*
X45000Y194679D02*
X101000D01*
Y250679D01*
X45000Y194679D02*
Y250679D01*
X46000D01*
X562008Y72920D02*
X617008D01*
X561008Y16920D02*
X617008D01*
Y72920D01*
X561008Y16920D02*
Y72920D01*
X562008D01*
X559786Y233786D02*
X560787D01*
X559786Y177786D02*
Y233786D01*
X615787Y177786D02*
Y233786D01*
X559786Y177786D02*
X615787D01*
X560787Y233786D02*
X615787D01*
X49774Y70311D02*
X104774D01*
X48774Y14311D02*
X104774D01*
Y70311D01*
X48774Y14311D02*
Y70311D01*
X49774D01*
D14*
X269798Y94492D02*
X272548D01*
X269798D02*
Y96242D01*
X300298Y94492D02*
X302798D01*
X302798Y94492D02*
X302798Y94492D01*
X302798Y94492D02*
Y96242D01*
Y135542D02*
Y137492D01*
X302798Y137492D02*
X302798Y137492D01*
X299798Y137492D02*
X302798D01*
X269798D02*
X272548D01*
X269798Y135992D02*
Y137442D01*
D15*
X478010Y171770D02*
X478010Y120970D01*
X450070D02*
X450070Y171770D01*
X450070Y120970D02*
X478010D01*
X450070Y171770D02*
X478010D01*
X513588Y171768D02*
X513588Y120968D01*
X485648D02*
X485648Y171768D01*
X485648Y120968D02*
X513588D01*
X485648Y171768D02*
X513588D01*
X549687D02*
X549687Y120968D01*
X521746D02*
X521746Y171768D01*
X521746Y120968D02*
X549687D01*
X521746Y171768D02*
X549687D01*
X62502Y177716D02*
X62502Y126916D01*
X34562D02*
X34562Y177716D01*
X34562Y126916D02*
X62502D01*
X34562Y177716D02*
X62502D01*
X73251D02*
X101191D01*
X73251Y126916D02*
X101191D01*
X73251D02*
X73251Y177716D01*
X101191D02*
X101191Y126916D01*
X111506Y177739D02*
X139446D01*
X111506Y126939D02*
X139446D01*
X111506D02*
X111506Y177739D01*
X139446D02*
X139446Y126939D01*
D16*
X344309Y111933D02*
X343463Y111087D01*
Y109394D01*
X344309Y108548D01*
X347695D01*
X348541Y109394D01*
Y111087D01*
X347695Y111933D01*
X343463Y117012D02*
X344309Y115319D01*
X346002Y113626D01*
X347695D01*
X348541Y114473D01*
Y116166D01*
X347695Y117012D01*
X346849D01*
X346002Y116166D01*
Y113626D01*
X117492Y236225D02*
X110721D01*
X107335Y232840D01*
X110721Y229454D01*
X117492D01*
Y226068D02*
Y222683D01*
Y224376D01*
X107335D01*
Y226068D01*
Y222683D01*
Y217604D02*
X117492D01*
X107335Y210833D01*
X117492D01*
X281798Y88136D02*
X283491D01*
X282645D01*
Y83058D01*
X281798D01*
X283491D01*
X289416Y87290D02*
X288569Y88136D01*
X286877D01*
X286030Y87290D01*
Y83904D01*
X286877Y83058D01*
X288569D01*
X289416Y83904D01*
X249784Y244742D02*
Y249820D01*
X252323D01*
X253169Y248974D01*
Y247281D01*
X252323Y246434D01*
X249784D01*
X251476D02*
X253169Y244742D01*
X254862Y249820D02*
X258248D01*
Y248974D01*
X254862Y245588D01*
Y244742D01*
X222785Y129742D02*
Y134821D01*
X225324D01*
X226171Y133974D01*
Y132282D01*
X225324Y131435D01*
X222785D01*
X224478D02*
X226171Y129742D01*
X231249Y134821D02*
X229556Y133974D01*
X227863Y132282D01*
Y130589D01*
X228710Y129742D01*
X230403D01*
X231249Y130589D01*
Y131435D01*
X230403Y132282D01*
X227863D01*
X243944Y62188D02*
X243098Y61342D01*
Y59649D01*
X243944Y58803D01*
X247330D01*
X248176Y59649D01*
Y61342D01*
X247330Y62188D01*
X248176Y66420D02*
X243098D01*
X245637Y63881D01*
Y67267D01*
X175006Y115992D02*
Y121071D01*
X177545D01*
X178392Y120224D01*
Y118532D01*
X177545Y117685D01*
X175006D01*
X176699D02*
X178392Y115992D01*
X180084Y120224D02*
X180931Y121071D01*
X182624D01*
X183470Y120224D01*
Y119378D01*
X182624Y118532D01*
X181777D01*
X182624D01*
X183470Y117685D01*
Y116839D01*
X182624Y115992D01*
X180931D01*
X180084Y116839D01*
X350655Y85327D02*
X355733D01*
Y82788D01*
X354887Y81941D01*
X353194D01*
X352347Y82788D01*
Y85327D01*
Y83634D02*
X350655Y81941D01*
Y80248D02*
Y78556D01*
Y79402D01*
X355733D01*
X354887Y80248D01*
X189593Y177914D02*
X194672D01*
Y175375D01*
X193825Y174529D01*
X192132D01*
X191286Y175375D01*
Y177914D01*
Y176222D02*
X189593Y174529D01*
Y170297D02*
X194672D01*
X192132Y172836D01*
Y169450D01*
X192979Y164372D02*
Y166911D01*
X192132Y167758D01*
X190440D01*
X189593Y166911D01*
Y164372D01*
X189989Y235179D02*
X195068D01*
Y232639D01*
X194221Y231793D01*
X192529D01*
X191682Y232639D01*
Y235179D01*
Y233486D02*
X189989Y231793D01*
Y227561D02*
X195068D01*
X192529Y230100D01*
Y226715D01*
X195068Y225022D02*
X189989D01*
Y222483D01*
X190836Y221636D01*
X191682D01*
X192529D01*
X193375Y222483D01*
Y225022D01*
X190386Y217145D02*
X195464D01*
Y214605D01*
X194618Y213759D01*
X192925D01*
X192078Y214605D01*
Y217145D01*
Y215452D02*
X190386Y213759D01*
Y209527D02*
X195464D01*
X192925Y212066D01*
Y208681D01*
X193771Y206141D02*
Y204449D01*
X192925Y203602D01*
X190386D01*
Y206141D01*
X191232Y206988D01*
X192078Y206141D01*
Y203602D01*
X312078Y70877D02*
X312924Y71723D01*
Y73416D01*
X312078Y74262D01*
X308692D01*
X307846Y73416D01*
Y71723D01*
X308692Y70877D01*
X307846Y65799D02*
Y69184D01*
X311231Y65799D01*
X312078D01*
X312924Y66645D01*
Y68338D01*
X312078Y69184D01*
X312924Y64106D02*
X307846D01*
Y61567D01*
X308692Y60720D01*
X312078D01*
X312924Y61567D01*
Y64106D01*
X43815Y186645D02*
X42968Y187491D01*
X41276D01*
X40429Y186645D01*
Y183259D01*
X41276Y182413D01*
X42968D01*
X43815Y183259D01*
X45507Y182413D02*
X47200D01*
X46354D01*
Y187491D01*
X45507Y186645D01*
X53125D02*
X52279Y187491D01*
X50586D01*
X49739Y186645D01*
Y183259D01*
X50586Y182413D01*
X52279D01*
X53125Y183259D01*
X580565Y85792D02*
X578872Y87485D01*
X575486D01*
X573794Y85792D01*
Y79021D01*
X575486Y77328D01*
X578872D01*
X580565Y79021D01*
Y82406D01*
X577179D01*
X583950Y77328D02*
Y87485D01*
X590722Y77328D01*
Y87485D01*
X594107D02*
Y77328D01*
X599185D01*
X600878Y79021D01*
Y85792D01*
X599185Y87485D01*
X594107D01*
X69782Y83006D02*
X68090Y84698D01*
X64704D01*
X63011Y83006D01*
Y76234D01*
X64704Y74542D01*
X68090D01*
X69782Y76234D01*
Y79620D01*
X66397D01*
X73168Y74542D02*
Y84698D01*
X79939Y74542D01*
Y84698D01*
X83325D02*
Y74542D01*
X88403D01*
X90096Y76234D01*
Y83006D01*
X88403Y84698D01*
X83325D01*
X123459Y186993D02*
X122613Y187839D01*
X120920D01*
X120073Y186993D01*
Y183607D01*
X120920Y182761D01*
X122613D01*
X123459Y183607D01*
X125152Y182761D02*
X126845D01*
X125998D01*
Y187839D01*
X125152Y186993D01*
X129384Y182761D02*
Y186146D01*
X131076Y187839D01*
X132769Y186146D01*
Y182761D01*
Y185300D01*
X129384D01*
X85080Y184986D02*
X84234Y185832D01*
X82541D01*
X81695Y184986D01*
Y181600D01*
X82541Y180754D01*
X84234D01*
X85080Y181600D01*
X86773Y180754D02*
X88466D01*
X87620D01*
Y185832D01*
X86773Y184986D01*
X91005Y185832D02*
Y180754D01*
X93544D01*
X94391Y181600D01*
Y182447D01*
X93544Y183293D01*
X91005D01*
X93544D01*
X94391Y184140D01*
Y184986D01*
X93544Y185832D01*
X91005D01*
X532094Y181265D02*
X531248Y182111D01*
X529555D01*
X528709Y181265D01*
Y177879D01*
X529555Y177033D01*
X531248D01*
X532094Y177879D01*
X537173Y177033D02*
X533787D01*
X537173Y180418D01*
Y181265D01*
X536326Y182111D01*
X534633D01*
X533787Y181265D01*
X538865Y177033D02*
Y180418D01*
X540558Y182111D01*
X542251Y180418D01*
Y177033D01*
Y179572D01*
X538865D01*
X459481Y180521D02*
X458634Y181367D01*
X456941D01*
X456095Y180521D01*
Y177135D01*
X456941Y176289D01*
X458634D01*
X459481Y177135D01*
X464559Y176289D02*
X461173D01*
X464559Y179674D01*
Y180521D01*
X463713Y181367D01*
X462020D01*
X461173Y180521D01*
X466252Y181367D02*
Y176289D01*
X468791D01*
X469637Y177135D01*
Y177981D01*
X468791Y178828D01*
X466252D01*
X468791D01*
X469637Y179674D01*
Y180521D01*
X468791Y181367D01*
X466252D01*
X495404Y180521D02*
X494557Y181367D01*
X492865D01*
X492018Y180521D01*
Y177135D01*
X492865Y176289D01*
X494557D01*
X495404Y177135D01*
X500482Y176289D02*
X497097D01*
X500482Y179674D01*
Y180521D01*
X499636Y181367D01*
X497943D01*
X497097Y180521D01*
X505561D02*
X504714Y181367D01*
X503021D01*
X502175Y180521D01*
Y177135D01*
X503021Y176289D01*
X504714D01*
X505561Y177135D01*
X222080Y110869D02*
X221233Y111715D01*
X219540D01*
X218694Y110869D01*
Y107484D01*
X219540Y106637D01*
X221233D01*
X222080Y107484D01*
X227158Y111715D02*
X223772D01*
Y109176D01*
X225465Y110023D01*
X226311D01*
X227158Y109176D01*
Y107484D01*
X226311Y106637D01*
X224619D01*
X223772Y107484D01*
X325265Y84338D02*
Y89417D01*
X327804D01*
X328650Y88570D01*
Y86877D01*
X327804Y86031D01*
X325265D01*
X326958D02*
X328650Y84338D01*
X333729D02*
X330343D01*
X333729Y87724D01*
Y88570D01*
X332882Y89417D01*
X331189D01*
X330343Y88570D01*
X189593Y197134D02*
X194672D01*
Y194595D01*
X193825Y193749D01*
X192132D01*
X191286Y194595D01*
Y197134D01*
Y195442D02*
X189593Y193749D01*
Y189517D02*
X194672D01*
X192132Y192056D01*
Y188671D01*
X194672Y183592D02*
X189593D01*
Y186131D01*
X190440Y186978D01*
X192132D01*
X192979Y186131D01*
Y183592D01*
X222698Y143196D02*
Y148275D01*
X225237D01*
X226083Y147428D01*
Y145736D01*
X225237Y144889D01*
X222698D01*
X224391D02*
X226083Y143196D01*
X231162Y148275D02*
X227776D01*
Y145736D01*
X229469Y146582D01*
X230315D01*
X231162Y145736D01*
Y144043D01*
X230315Y143196D01*
X228623D01*
X227776Y144043D01*
X632457Y222556D02*
X625686D01*
X622300Y219170D01*
X625686Y215785D01*
X632457D01*
Y207321D02*
Y210706D01*
X630764Y212399D01*
X623993D01*
X622300Y210706D01*
Y207321D01*
X623993Y205628D01*
X630764D01*
X632457Y207321D01*
Y202242D02*
X623993D01*
X622300Y200550D01*
Y197164D01*
X623993Y195471D01*
X632457D01*
Y192086D02*
Y185315D01*
Y188700D01*
X622300D01*
D17*
X178628Y34227D02*
X188785D01*
Y31688D01*
X178628Y21531D01*
Y18992D01*
X188785D01*
X204020Y34227D02*
X193863D01*
Y18992D01*
X204020D01*
X193863Y26609D02*
X198941D01*
X209098Y34227D02*
Y18992D01*
X216716D01*
X219255Y21531D01*
Y24070D01*
X216716Y26609D01*
X209098D01*
X216716D01*
X219255Y29148D01*
Y31688D01*
X216716Y34227D01*
X209098D01*
X224333Y18992D02*
Y34227D01*
X231951D01*
X234490Y31688D01*
Y26609D01*
X231951Y24070D01*
X224333D01*
X229412D02*
X234490Y18992D01*
X239568D02*
Y29148D01*
X244647Y34227D01*
X249725Y29148D01*
Y18992D01*
Y26609D01*
X239568D01*
X264960Y31688D02*
X262421Y34227D01*
X257343D01*
X254803Y31688D01*
Y21531D01*
X257343Y18992D01*
X262421D01*
X264960Y21531D01*
X277656Y34227D02*
X272578D01*
X270039Y31688D01*
Y21531D01*
X272578Y18992D01*
X277656D01*
X280195Y21531D01*
Y31688D01*
X277656Y34227D01*
X285273Y18992D02*
Y34227D01*
X292891D01*
X295430Y31688D01*
Y26609D01*
X292891Y24070D01*
X285273D01*
X290352D02*
X295430Y18992D01*
X300509D02*
Y34227D01*
X310665Y18992D01*
Y34227D01*
X325900Y31688D02*
X323361Y34227D01*
X318283D01*
X315744Y31688D01*
Y29148D01*
X318283Y26609D01*
X323361D01*
X325900Y24070D01*
Y21531D01*
X323361Y18992D01*
X318283D01*
X315744Y21531D01*
X346214Y34227D02*
X356371D01*
X351292D01*
Y18992D01*
X371606Y34227D02*
X361449D01*
Y18992D01*
X371606D01*
X361449Y26609D02*
X366527D01*
X376684Y18992D02*
Y29148D01*
X381762Y34227D01*
X386841Y29148D01*
Y18992D01*
Y26609D01*
X376684D01*
X391919Y18992D02*
Y34227D01*
X396997Y29148D01*
X402076Y34227D01*
Y18992D01*
X407154Y26609D02*
X417311D01*
X422389Y21531D02*
X424928Y18992D01*
X430007D01*
X432546Y21531D01*
Y31688D01*
X430007Y34227D01*
X424928D01*
X422389Y31688D01*
Y29148D01*
X424928Y26609D01*
X432546D01*
X437624Y31688D02*
X440163Y34227D01*
X445242D01*
X447781Y31688D01*
Y21531D01*
X445242Y18992D01*
X440163D01*
X437624Y21531D01*
Y31688D01*
X452859D02*
X455398Y34227D01*
X460477D01*
X463016Y31688D01*
Y21531D01*
X460477Y18992D01*
X455398D01*
X452859Y21531D01*
Y31688D01*
X411424Y238510D02*
Y228354D01*
X418195D01*
X421581D02*
X424966D01*
X423274D01*
Y238510D01*
X421581Y236818D01*
M02*
