G04*
G04 #@! TF.GenerationSoftware,Altium Limited,Altium Designer,23.0.1 (38)*
G04*
G04 Layer_Color=8421504*
%FSLAX44Y44*%
%MOMM*%
G71*
G04*
G04 #@! TF.SameCoordinates,61B169D7-A8E7-49CF-968D-BC901533A6F8*
G04*
G04*
G04 #@! TF.FilePolarity,Positive*
G04*
G01*
G75*
%ADD18R,0.8000X0.8000*%
%ADD19R,0.2500X0.6750*%
%ADD20R,0.8000X0.2500*%
%ADD21R,0.2500X1.8000*%
%ADD22R,1.2700X0.6096*%
%ADD23R,3.9116X3.8100*%
%ADD24R,0.8000X0.8000*%
%ADD25R,1.0000X1.0000*%
G36*
X267482Y222992D02*
X267965Y221826D01*
Y218778D01*
X267482Y217611D01*
X266315Y217128D01*
X256663D01*
X255497Y217611D01*
X255014Y218778D01*
Y221826D01*
X255497Y222992D01*
X256663Y223475D01*
X266315D01*
X267482Y222992D01*
D02*
G37*
G36*
Y210292D02*
X267965Y209126D01*
Y206078D01*
X267482Y204911D01*
X266315Y204428D01*
X256663D01*
X255497Y204911D01*
X255014Y206078D01*
Y209126D01*
X255497Y210292D01*
X256663Y210775D01*
X266315D01*
X267482Y210292D01*
D02*
G37*
G36*
Y197592D02*
X267965Y196426D01*
Y193378D01*
X267482Y192211D01*
X266315Y191728D01*
X256663D01*
X255497Y192211D01*
X255014Y193378D01*
Y196426D01*
X255497Y197592D01*
X256663Y198075D01*
X266315D01*
X267482Y197592D01*
D02*
G37*
G36*
X211602Y222992D02*
X212085Y221826D01*
Y218778D01*
X212031Y218647D01*
X212617Y219097D01*
X214934Y220056D01*
X217420Y220384D01*
X237486D01*
X239973Y220056D01*
X242290Y219097D01*
X244280Y217570D01*
X245806Y215580D01*
X246766Y213263D01*
X247094Y210777D01*
Y191727D01*
X246766Y189240D01*
X245806Y186923D01*
X244280Y184933D01*
X242290Y183407D01*
X239973Y182447D01*
X237486Y182119D01*
X217420D01*
X214934Y182447D01*
X212617Y183407D01*
X212031Y183856D01*
X212085Y183726D01*
Y180678D01*
X211602Y179511D01*
X210435Y179028D01*
X203323D01*
X202157Y179511D01*
X201674Y180678D01*
Y183726D01*
X202157Y184892D01*
X203323Y185375D01*
X210288D01*
X209100Y186923D01*
X208141Y189240D01*
X207813Y191727D01*
Y191728D01*
X203323D01*
X202157Y192211D01*
X201674Y193378D01*
Y196426D01*
X202157Y197592D01*
X203323Y198075D01*
X207813D01*
Y204428D01*
X203323D01*
X202157Y204911D01*
X201674Y206078D01*
Y209126D01*
X202157Y210292D01*
X203323Y210775D01*
X207813D01*
Y210777D01*
X208141Y213263D01*
X209100Y215580D01*
X210288Y217128D01*
X203323D01*
X202157Y217611D01*
X201674Y218778D01*
Y221826D01*
X202157Y222992D01*
X203323Y223475D01*
X210435D01*
X211602Y222992D01*
D02*
G37*
G36*
X267482Y184892D02*
X267965Y183726D01*
Y180678D01*
X267482Y179511D01*
X266315Y179028D01*
X256663D01*
X255497Y179511D01*
X255014Y180678D01*
Y183726D01*
X255497Y184892D01*
X256663Y185375D01*
X266315D01*
X267482Y184892D01*
D02*
G37*
G36*
X134342Y174376D02*
X135499Y173602D01*
X136273Y172445D01*
X136545Y171079D01*
Y164079D01*
X136273Y162713D01*
X135499Y161556D01*
X134342Y160782D01*
X132976Y160511D01*
X117976D01*
X116610Y160782D01*
X115453Y161556D01*
X114679Y162713D01*
X114407Y164079D01*
Y171079D01*
X114679Y172445D01*
X115453Y173602D01*
X116610Y174376D01*
X117976Y174648D01*
X132976D01*
X134342Y174376D01*
D02*
G37*
G36*
X96087Y174353D02*
X97244Y173580D01*
X98018Y172422D01*
X98290Y171056D01*
Y164056D01*
X98018Y162691D01*
X97244Y161533D01*
X96087Y160759D01*
X94721Y160488D01*
X79721D01*
X78355Y160759D01*
X77198Y161533D01*
X76424Y162691D01*
X76153Y164056D01*
Y171056D01*
X76424Y172422D01*
X77198Y173580D01*
X78355Y174353D01*
X79721Y174625D01*
X94721D01*
X96087Y174353D01*
D02*
G37*
G36*
X57397D02*
X58555Y173580D01*
X59329Y172422D01*
X59600Y171056D01*
Y164056D01*
X59329Y162691D01*
X58555Y161533D01*
X57397Y160759D01*
X56032Y160488D01*
X41032D01*
X39666Y160759D01*
X38508Y161533D01*
X37735Y162691D01*
X37463Y164056D01*
Y171056D01*
X37735Y172422D01*
X38508Y173580D01*
X39666Y174353D01*
X41032Y174625D01*
X56032D01*
X57397Y174353D01*
D02*
G37*
G36*
X472906Y168407D02*
X474064Y167633D01*
X474837Y166476D01*
X475109Y165110D01*
Y158110D01*
X474837Y156744D01*
X474064Y155587D01*
X472906Y154813D01*
X471540Y154542D01*
X456540D01*
X455175Y154813D01*
X454017Y155587D01*
X453243Y156744D01*
X452972Y158110D01*
Y165110D01*
X453243Y166476D01*
X454017Y167633D01*
X455175Y168407D01*
X456540Y168679D01*
X471540D01*
X472906Y168407D01*
D02*
G37*
G36*
X544582Y168404D02*
X545740Y167631D01*
X546513Y166473D01*
X546785Y165107D01*
Y158108D01*
X546513Y156742D01*
X545740Y155584D01*
X544582Y154811D01*
X543217Y154539D01*
X528217D01*
X526851Y154811D01*
X525693Y155584D01*
X524920Y156742D01*
X524648Y158108D01*
Y165107D01*
X524920Y166473D01*
X525693Y167631D01*
X526851Y168404D01*
X528217Y168676D01*
X543217D01*
X544582Y168404D01*
D02*
G37*
G36*
X508484D02*
X509641Y167631D01*
X510415Y166473D01*
X510687Y165107D01*
Y158108D01*
X510415Y156742D01*
X509641Y155584D01*
X508484Y154811D01*
X507118Y154539D01*
X492118D01*
X490752Y154811D01*
X489595Y155584D01*
X488821Y156742D01*
X488549Y158108D01*
Y165107D01*
X488821Y166473D01*
X489595Y167631D01*
X490752Y168404D01*
X492118Y168676D01*
X507118D01*
X508484Y168404D01*
D02*
G37*
G36*
X134342Y143896D02*
X135499Y143122D01*
X136273Y141965D01*
X136545Y140599D01*
Y133599D01*
X136273Y132233D01*
X135499Y131076D01*
X134342Y130302D01*
X132976Y130030D01*
X117976D01*
X116610Y130302D01*
X115453Y131076D01*
X114679Y132233D01*
X114407Y133599D01*
Y140599D01*
X114679Y141965D01*
X115453Y143122D01*
X116610Y143896D01*
X117976Y144168D01*
X132976D01*
X134342Y143896D01*
D02*
G37*
G36*
X96087Y143873D02*
X97244Y143099D01*
X98018Y141942D01*
X98290Y140576D01*
Y133576D01*
X98018Y132211D01*
X97244Y131053D01*
X96087Y130279D01*
X94721Y130008D01*
X79721D01*
X78355Y130279D01*
X77198Y131053D01*
X76424Y132211D01*
X76153Y133576D01*
Y140576D01*
X76424Y141942D01*
X77198Y143099D01*
X78355Y143873D01*
X79721Y144145D01*
X94721D01*
X96087Y143873D01*
D02*
G37*
G36*
X57397D02*
X58555Y143099D01*
X59329Y141942D01*
X59600Y140576D01*
Y133576D01*
X59329Y132211D01*
X58555Y131053D01*
X57397Y130279D01*
X56032Y130008D01*
X41032D01*
X39666Y130279D01*
X38508Y131053D01*
X37735Y132211D01*
X37463Y133576D01*
Y140576D01*
X37735Y141942D01*
X38508Y143099D01*
X39666Y143873D01*
X41032Y144145D01*
X56032D01*
X57397Y143873D01*
D02*
G37*
G36*
X472906Y137927D02*
X474064Y137153D01*
X474837Y135996D01*
X475109Y134630D01*
Y127630D01*
X474837Y126264D01*
X474064Y125107D01*
X472906Y124333D01*
X471540Y124061D01*
X456540D01*
X455175Y124333D01*
X454017Y125107D01*
X453243Y126264D01*
X452972Y127630D01*
Y134630D01*
X453243Y135996D01*
X454017Y137153D01*
X455175Y137927D01*
X456540Y138199D01*
X471540D01*
X472906Y137927D01*
D02*
G37*
G36*
X544582Y137924D02*
X545740Y137151D01*
X546513Y135993D01*
X546785Y134628D01*
Y127627D01*
X546513Y126262D01*
X545740Y125104D01*
X544582Y124331D01*
X543217Y124059D01*
X528217D01*
X526851Y124331D01*
X525693Y125104D01*
X524920Y126262D01*
X524648Y127627D01*
Y134628D01*
X524920Y135993D01*
X525693Y137151D01*
X526851Y137924D01*
X528217Y138196D01*
X543217D01*
X544582Y137924D01*
D02*
G37*
G36*
X508484D02*
X509641Y137151D01*
X510415Y135993D01*
X510687Y134628D01*
Y127627D01*
X510415Y126262D01*
X509641Y125104D01*
X508484Y124331D01*
X507118Y124059D01*
X492118D01*
X490752Y124331D01*
X489595Y125104D01*
X488821Y126262D01*
X488549Y127627D01*
Y134628D01*
X488821Y135993D01*
X489595Y137151D01*
X490752Y137924D01*
X492118Y138196D01*
X507118D01*
X508484Y137924D01*
D02*
G37*
D18*
X336169Y113492D02*
D03*
X320929D02*
D03*
X261733Y236728D02*
D03*
X246493D02*
D03*
X255516Y132242D02*
D03*
X240276D02*
D03*
X223817Y118492D02*
D03*
X239057D02*
D03*
X208280D02*
D03*
X193040D02*
D03*
X255516Y146261D02*
D03*
X240276D02*
D03*
D19*
X275048Y96367D02*
D03*
Y135617D02*
D03*
X297538D02*
D03*
X297548Y96367D02*
D03*
D20*
X272298Y98492D02*
D03*
Y103492D02*
D03*
Y108492D02*
D03*
Y113492D02*
D03*
Y118492D02*
D03*
Y123492D02*
D03*
Y128492D02*
D03*
Y133492D02*
D03*
X300288Y133492D02*
D03*
X300298Y128492D02*
D03*
Y123492D02*
D03*
Y118492D02*
D03*
Y113492D02*
D03*
Y108492D02*
D03*
Y103492D02*
D03*
Y98492D02*
D03*
D21*
X289298Y129992D02*
D03*
X283048D02*
D03*
X289298Y101992D02*
D03*
X283048D02*
D03*
D22*
X261489Y220302D02*
D03*
Y194902D02*
D03*
Y207602D02*
D03*
Y182202D02*
D03*
X206879D02*
D03*
Y194902D02*
D03*
Y207602D02*
D03*
Y220302D02*
D03*
D23*
X227453Y201252D02*
D03*
D24*
X245676Y91910D02*
D03*
Y76670D02*
D03*
X329339Y60262D02*
D03*
Y75501D02*
D03*
X342780Y90742D02*
D03*
Y75501D02*
D03*
X300288Y60262D02*
D03*
Y75501D02*
D03*
D25*
X159139Y228991D02*
D03*
X179459D02*
D03*
X179688Y172146D02*
D03*
X159368D02*
D03*
X179852Y209639D02*
D03*
X159532D02*
D03*
X179855Y191343D02*
D03*
X159535D02*
D03*
M02*
